<svg width="36" height="38" viewBox="0 0 36 38" fill="none" xmlns="http://www.w3.org/2000/svg">
<path d="M0 3.2458C0 2.55062 0.252856 1.88392 0.702944 1.39235C1.15303 0.900791 1.76348 0.624634 2.4 0.624634H28.8C29.4365 0.624634 30.047 0.900791 30.4971 1.39235C30.9471 1.88392 31.2 2.55062 31.2 3.2458V5.86696H32.4C33.3548 5.86696 34.2705 6.28119 34.9456 7.01854C35.6207 7.75588 36 8.75594 36 9.7987V28.1468C36 29.1896 35.6207 30.1897 34.9456 30.927C34.2705 31.6643 33.3548 32.0786 32.4 32.0786H31.08C30.8034 33.5587 30.067 34.889 28.9955 35.8443C27.924 36.7996 26.5832 37.3212 25.2 37.3209H6C4.4087 37.3209 2.88258 36.6305 1.75736 35.4016C0.632141 34.1727 0 32.5059 0 30.768V3.2458ZM31.2 29.4574H32.4C32.7183 29.4574 33.0235 29.3193 33.2485 29.0736C33.4736 28.8278 33.6 28.4944 33.6 28.1468V9.7987C33.6 9.45111 33.4736 9.11776 33.2485 8.87198C33.0235 8.6262 32.7183 8.48812 32.4 8.48812H31.2V29.4574ZM28.8 3.2458H2.4V30.768C2.4 31.8108 2.77928 32.8108 3.45442 33.5482C4.12955 34.2855 5.04522 34.6997 6 34.6997H25.2C26.1548 34.6997 27.0705 34.2855 27.7456 33.5482C28.4207 32.8108 28.8 31.8108 28.8 30.768V3.2458Z" fill="#007CAA"/>
</svg>
