<svg width="35" height="35" viewBox="0 0 35 35" fill="none" xmlns="http://www.w3.org/2000/svg">
<g clip-path="url(#clip0_18_853)">
<path d="M23.743 17.8194C23.8449 17.921 23.9257 18.0417 23.9808 18.1746C24.036 18.3074 24.0644 18.4499 24.0644 18.5938C24.0644 18.7376 24.036 18.8801 23.9808 19.0129C23.9257 19.1458 23.8449 19.2665 23.743 19.3681L17.1805 25.9306C17.0789 26.0325 16.9582 26.1133 16.8254 26.1684C16.6925 26.2236 16.55 26.252 16.4062 26.252C16.2623 26.252 16.1198 26.2236 15.987 26.1684C15.8541 26.1133 15.7334 26.0325 15.6318 25.9306L12.3505 22.6494C12.2488 22.5477 12.1682 22.427 12.1131 22.2941C12.0581 22.1612 12.0298 22.0188 12.0298 21.875C12.0298 21.7312 12.0581 21.5888 12.1131 21.4559C12.1682 21.323 12.2488 21.2023 12.3505 21.1006C12.5559 20.8952 12.8345 20.7799 13.1249 20.7799C13.2687 20.7799 13.4111 20.8082 13.544 20.8632C13.6769 20.9183 13.7976 20.9989 13.8993 21.1006L16.4062 23.6097L22.1943 17.8194C22.2959 17.7175 22.4166 17.6367 22.5495 17.5816C22.6823 17.5264 22.8248 17.498 22.9687 17.498C23.1125 17.498 23.255 17.5264 23.3879 17.5816C23.5207 17.6367 23.6414 17.7175 23.743 17.8194Z" fill="white"/>
<path d="M7.65625 0C7.94633 0 8.22453 0.115234 8.42965 0.320352C8.63477 0.52547 8.75 0.803669 8.75 1.09375V2.1875H26.25V1.09375C26.25 0.803669 26.3652 0.52547 26.5704 0.320352C26.7755 0.115234 27.0537 0 27.3438 0C27.6338 0 27.912 0.115234 28.1171 0.320352C28.3223 0.52547 28.4375 0.803669 28.4375 1.09375V2.1875H30.625C31.7853 2.1875 32.8981 2.64844 33.7186 3.46891C34.5391 4.28938 35 5.40218 35 6.5625V30.625C35 31.7853 34.5391 32.8981 33.7186 33.7186C32.8981 34.5391 31.7853 35 30.625 35H4.375C3.21468 35 2.10188 34.5391 1.28141 33.7186C0.460936 32.8981 0 31.7853 0 30.625V6.5625C0 5.40218 0.460936 4.28938 1.28141 3.46891C2.10188 2.64844 3.21468 2.1875 4.375 2.1875H6.5625V1.09375C6.5625 0.803669 6.67773 0.52547 6.88285 0.320352C7.08797 0.115234 7.36617 0 7.65625 0V0ZM4.375 4.375C3.79484 4.375 3.23844 4.60547 2.8282 5.0157C2.41797 5.42594 2.1875 5.98234 2.1875 6.5625V30.625C2.1875 31.2052 2.41797 31.7616 2.8282 32.1718C3.23844 32.582 3.79484 32.8125 4.375 32.8125H30.625C31.2052 32.8125 31.7616 32.582 32.1718 32.1718C32.582 31.7616 32.8125 31.2052 32.8125 30.625V6.5625C32.8125 5.98234 32.582 5.42594 32.1718 5.0157C31.7616 4.60547 31.2052 4.375 30.625 4.375H4.375Z" fill="white"/>
<path d="M5.46875 8.75C5.46875 8.45992 5.58398 8.18172 5.7891 7.9766C5.99422 7.77148 6.27242 7.65625 6.5625 7.65625H28.4375C28.7276 7.65625 29.0058 7.77148 29.2109 7.9766C29.416 8.18172 29.5312 8.45992 29.5312 8.75V10.9375C29.5312 11.2276 29.416 11.5058 29.2109 11.7109C29.0058 11.916 28.7276 12.0312 28.4375 12.0312H6.5625C6.27242 12.0312 5.99422 11.916 5.7891 11.7109C5.58398 11.5058 5.46875 11.2276 5.46875 10.9375V8.75Z" fill="white"/>
</g>
<defs>
<clipPath id="clip0_18_853">
<rect width="35" height="35" fill="white"/>
</clipPath>
</defs>
</svg>
