<svg width="36" height="38" viewBox="0 0 36 38" fill="none" xmlns="http://www.w3.org/2000/svg">
<path fill-rule="evenodd" clip-rule="evenodd" d="M0 0.481445H2.25V34.8842H36V37.1777H0V0.481445ZM22.5 8.50875C22.5 8.20462 22.6185 7.91293 22.8295 7.69787C23.0405 7.48282 23.3266 7.362 23.625 7.362H32.625C32.9234 7.362 33.2095 7.48282 33.4205 7.69787C33.6315 7.91293 33.75 8.20462 33.75 8.50875V17.6828C33.75 17.987 33.6315 18.2786 33.4205 18.4937C33.2095 18.7088 32.9234 18.8296 32.625 18.8296C32.3266 18.8296 32.0405 18.7088 31.8295 18.4937C31.6185 18.2786 31.5 17.987 31.5 17.6828V11.7197L23.3708 21.8501C23.2712 21.974 23.1474 22.0752 23.0072 22.1473C22.867 22.2193 22.7135 22.2607 22.5567 22.2687C22.3999 22.2767 22.2431 22.2511 22.0966 22.1937C21.95 22.1362 21.8169 22.0481 21.7058 21.935L15.885 16.0017L7.659 27.5312C7.47905 27.7644 7.21741 27.9175 6.92906 27.9582C6.64072 27.9989 6.34811 27.9241 6.11274 27.7495C5.87736 27.5749 5.71755 27.3141 5.66687 27.0219C5.6162 26.7297 5.67861 26.4289 5.841 26.1826L14.841 13.5683C14.9365 13.4341 15.0594 13.3227 15.2013 13.2416C15.3431 13.1606 15.5005 13.1118 15.6626 13.0988C15.8247 13.0857 15.9877 13.1086 16.1403 13.1659C16.2929 13.2232 16.4315 13.3135 16.5465 13.4306L22.4167 19.4167L30.2512 9.65551H23.625C23.3266 9.65551 23.0405 9.53469 22.8295 9.31964C22.6185 9.10458 22.5 8.81289 22.5 8.50875Z" fill="white"/>
</svg>
