<svg width="64" height="64" viewBox="0 0 64 64" fill="none" xmlns="http://www.w3.org/2000/svg">
<path d="M9 38C5.50001 24 8 7.5001 8 7.5001C26.6371 2.19602 37.0427 1.99406 55.5 8.0001C55.5 8.0001 59 33.0002 54.5 42.0001C50 51 35.5 61 32 60.5001C28.5 60.0002 12.5 52 9 38Z" fill="#FAF0EC"/>
<path d="M32 59.9912C32 59.9912 55.9963 51.9925 55.9963 31.9956" stroke="#B55D36" stroke-width="3" stroke-linecap="round" stroke-linejoin="round"/>
<path d="M55.9963 31.9956V7.99938C55.9963 7.99938 47.9975 4 32 4" stroke="#B55D36" stroke-width="3" stroke-linecap="round" stroke-linejoin="round"/>
<path d="M32 59.9912C32 59.9912 8.00372 51.9925 8.00372 31.9956" stroke="#B55D36" stroke-width="3" stroke-linecap="round" stroke-linejoin="round"/>
<path d="M8.00372 31.9956V7.99938C8.00372 7.99938 16.0025 4 32 4" stroke="#B55D36" stroke-width="3" stroke-linecap="round" stroke-linejoin="round"/>
<path d="M47.9975 15.998C32 27.9962 28.0006 43.9937 28.0006 43.9937C28.0006 43.9937 24.0012 39.22 20.0018 35.9949" stroke="#B55D36" stroke-width="3" stroke-linecap="round" stroke-linejoin="round"/>
</svg>
