<svg width="36" height="36" viewBox="0 0 36 36" fill="none" xmlns="http://www.w3.org/2000/svg">
<g clip-path="url(#clip0_18_876)">
<path d="M15.7496 18C16.7943 17.9999 17.8285 18.2076 18.7921 18.6111C19.7557 19.0145 20.6294 19.6057 21.3623 20.3501C22.0952 21.0945 22.6727 21.9773 23.0611 22.9471C23.4495 23.9169 23.641 24.9542 23.6246 25.9988C23.622 26.1717 23.6592 26.3429 23.7335 26.4991C23.8078 26.6553 23.9171 26.7923 24.0529 26.8994C24.1888 27.0064 24.3474 27.0808 24.5166 27.1166C24.6859 27.1524 24.8611 27.1487 25.0286 27.1058C25.5275 26.9779 26.049 26.9658 26.5533 27.0702C27.0576 27.1745 27.5315 27.3927 27.9386 27.7081C28.3458 28.0235 28.6756 28.4276 28.9028 28.8898C29.13 29.352 29.2486 29.86 29.2496 30.375C29.2496 31.2701 28.894 32.1286 28.2611 32.7615C27.6282 33.3944 26.7697 33.75 25.8746 33.75H6.74961C6.15134 33.7466 5.55975 33.624 5.00944 33.3892C4.45914 33.1545 3.96116 32.8124 3.54465 32.3829C3.12813 31.9534 2.80144 31.4452 2.58368 30.888C2.36593 30.3307 2.26147 29.7356 2.27643 29.1376C2.29139 28.5395 2.42546 27.9504 2.67081 27.4047C2.91615 26.859 3.26785 26.3678 3.70531 25.9597C4.14277 25.5515 4.65723 25.2347 5.21858 25.0278C5.77994 24.8209 6.37692 24.728 6.97461 24.7545C7.23386 24.7678 7.48975 24.6911 7.69889 24.5373C7.90803 24.3836 8.05756 24.1622 8.12211 23.9108C8.55853 22.2195 9.54456 20.7211 10.9252 19.6512C12.3059 18.5813 14.0029 18.0005 15.7496 18ZM25.8139 24.75C25.5607 22.4688 24.54 20.3413 22.9191 18.7163C21.2983 17.0913 19.1733 16.0653 16.8928 15.8063C14.6123 15.5474 12.3114 16.071 10.3675 17.2913C8.42358 18.5116 6.95194 20.3561 6.19386 22.5225C4.45673 22.6647 2.84193 23.4733 1.68748 24.7791C0.533031 26.0849 -0.0715663 27.7866 0.000243617 29.5281C0.0720536 31.2696 0.814704 32.9158 2.07274 34.1221C3.33077 35.3284 5.00667 36.0013 6.74961 36H25.8746C27.3665 36 28.7972 35.4074 29.8521 34.3525C30.907 33.2976 31.4996 31.8668 31.4996 30.375C31.4996 28.8832 30.907 27.4524 29.8521 26.3975C28.7972 25.3426 27.3665 24.75 25.8746 24.75H25.8139Z" fill="white"/>
<path d="M23.625 3.375C23.625 3.07663 23.5065 2.79048 23.2955 2.5795C23.0845 2.36853 22.7984 2.25 22.5 2.25C22.2016 2.25 21.9155 2.36853 21.7045 2.5795C21.4935 2.79048 21.375 3.07663 21.375 3.375V5.625C21.375 5.92337 21.4935 6.20952 21.7045 6.42049C21.9155 6.63147 22.2016 6.75 22.5 6.75C22.7984 6.75 23.0845 6.63147 23.2955 6.42049C23.5065 6.20952 23.625 5.92337 23.625 5.625V3.375ZM32.0468 7.794C32.1542 7.69022 32.2399 7.56608 32.2989 7.42883C32.3578 7.29157 32.3889 7.14395 32.3902 6.99458C32.3915 6.8452 32.363 6.69706 32.3064 6.5588C32.2499 6.42054 32.1663 6.29493 32.0607 6.18931C31.9551 6.08368 31.8295 6.00014 31.6912 5.94358C31.5529 5.88701 31.4048 5.85855 31.2554 5.85984C31.106 5.86114 30.9584 5.89218 30.8212 5.95114C30.6839 6.0101 30.5598 6.0958 30.456 6.20325L28.863 7.794C28.6518 8.00524 28.5331 8.29175 28.5331 8.5905C28.5331 8.88925 28.6518 9.17575 28.863 9.387C29.0742 9.59824 29.3608 9.71692 29.6595 9.71692C29.9582 9.71692 30.2448 9.59824 30.456 9.387L32.0468 7.794ZM14.544 6.20325C14.3318 5.99832 14.0476 5.88493 13.7527 5.88749C13.4577 5.89005 13.1755 6.00837 12.967 6.21695C12.7584 6.42554 12.6401 6.7077 12.6375 7.00267C12.6349 7.29764 12.7483 7.58182 12.9533 7.794L14.544 9.387C14.6486 9.4916 14.7728 9.57457 14.9094 9.63118C15.0461 9.68778 15.1926 9.71692 15.3405 9.71692C15.4884 9.71692 15.6349 9.68778 15.7716 9.63118C15.9082 9.57457 16.0324 9.4916 16.137 9.387C16.2416 9.2824 16.3246 9.15823 16.3812 9.02156C16.4378 8.8849 16.4669 8.73842 16.4669 8.5905C16.4669 8.44258 16.4378 8.2961 16.3812 8.15944C16.3246 8.02277 16.2416 7.8986 16.137 7.794L14.544 6.20325ZM18.4455 13.7947C18.7251 13.2152 19.1258 12.7024 19.6205 12.2909C20.1152 11.8794 20.6923 11.5788 21.3131 11.4093C21.9338 11.2399 22.5837 11.2055 23.2188 11.3085C23.854 11.4115 24.4596 11.6496 24.995 12.0066C25.5303 12.3636 25.9829 12.8312 26.3221 13.378C26.6614 13.9247 26.8794 14.5379 26.9615 15.1761C27.0436 15.8143 26.9879 16.4627 26.7982 17.0775C26.6084 17.6924 26.289 18.2593 25.8615 18.7402C26.3093 19.3725 26.6985 20.0497 27.0225 20.7607C27.785 20.0718 28.3802 19.2178 28.7625 18.264C29.1449 17.3101 29.3045 16.2815 29.229 15.2566C29.1535 14.2318 28.8451 13.2376 28.3271 12.3501C27.8091 11.4625 27.0953 10.7049 26.2401 10.1351C25.3849 9.56524 24.4109 9.19819 23.3923 9.06192C22.3737 8.92565 21.3375 9.02374 20.3626 9.34874C19.3877 9.67373 18.4998 10.217 17.7667 10.9372C17.0337 11.6574 16.4747 12.5355 16.1325 13.5045C16.9245 13.5292 17.6985 13.6282 18.4455 13.7947ZM28.5345 22.9612C29.8845 23.445 31.0658 24.2887 31.959 25.3732C32.0815 25.274 32.1818 25.1502 32.2533 25.0098C32.3249 24.8693 32.3662 24.7154 32.3744 24.558C32.3827 24.4006 32.3578 24.2432 32.3014 24.0961C32.2449 23.9489 32.1582 23.8152 32.0468 23.7037L30.456 22.113C30.2956 21.9517 30.0901 21.8427 29.8666 21.8006C29.643 21.7585 29.4119 21.7851 29.2038 21.877C28.9957 21.9688 28.8203 22.1216 28.7008 22.3152C28.5814 22.5088 28.5234 22.734 28.5345 22.9612ZM32.625 14.625C32.3266 14.625 32.0405 14.7435 31.8295 14.9545C31.6185 15.1655 31.5 15.4516 31.5 15.75C31.5 16.0484 31.6185 16.3345 31.8295 16.5455C32.0405 16.7565 32.3266 16.875 32.625 16.875H34.875C35.1734 16.875 35.4595 16.7565 35.6705 16.5455C35.8815 16.3345 36 16.0484 36 15.75C36 15.4516 35.8815 15.1655 35.6705 14.9545C35.4595 14.7435 35.1734 14.625 34.875 14.625H32.625Z" fill="white"/>
</g>
<defs>
<clipPath id="clip0_18_876">
<rect width="36" height="36" fill="white"/>
</clipPath>
</defs>
</svg>
