<svg width="36" height="38" viewBox="0 0 36 38" fill="none" xmlns="http://www.w3.org/2000/svg">
<path d="M0 3.24592C0 2.55074 0.252856 1.88404 0.702944 1.39248C1.15303 0.900913 1.76348 0.624756 2.4 0.624756H28.8C29.4365 0.624756 30.047 0.900913 30.4971 1.39248C30.9471 1.88404 31.2 2.55074 31.2 3.24592V5.86708H32.4C33.3548 5.86708 34.2705 6.28132 34.9456 7.01866C35.6207 7.75601 36 8.75606 36 9.79882V28.147C36 29.1897 35.6207 30.1898 34.9456 30.9271C34.2705 31.6645 33.3548 32.0787 32.4 32.0787H31.08C30.8034 33.5588 30.067 34.8891 28.9955 35.8444C27.924 36.7997 26.5832 37.3213 25.2 37.321H6C4.4087 37.321 2.88258 36.6306 1.75736 35.4017C0.632141 34.1728 0 32.5061 0 30.7681V3.24592ZM31.2 29.4575H32.4C32.7183 29.4575 33.0235 29.3195 33.2485 29.0737C33.4736 28.8279 33.6 28.4946 33.6 28.147V9.79882C33.6 9.45124 33.4736 9.11789 33.2485 8.8721C33.0235 8.62632 32.7183 8.48824 32.4 8.48824H31.2V29.4575ZM28.8 3.24592H2.4V30.7681C2.4 31.8109 2.77928 32.8109 3.45442 33.5483C4.12955 34.2856 5.04522 34.6999 6 34.6999H25.2C26.1548 34.6999 27.0705 34.2856 27.7456 33.5483C28.4207 32.8109 28.8 31.8109 28.8 30.7681V3.24592Z" fill="white"/>
</svg>
