<svg width="64" height="64" viewBox="0 0 64 64" fill="none" xmlns="http://www.w3.org/2000/svg">
<path d="M55.3535 24.7095H54.6731C54.1093 24.7095 53.6525 24.2526 53.6525 23.6888C53.6525 23.1251 54.1093 22.6682 54.6731 22.6682H55.3535C55.9172 22.6682 56.3741 23.1251 56.3741 23.6888C56.3741 24.2526 55.9173 24.7095 55.3535 24.7095Z" fill="#B55D36"/>
<path d="M43.5858 60.959H42.1905C41.6267 60.959 41.1698 60.5021 41.1698 59.9383C41.1698 59.3746 41.6267 58.9177 42.1905 58.9177H43.5858C44.1496 58.9177 44.6065 59.3746 44.6065 59.9383C44.6065 60.5021 44.1497 60.959 43.5858 60.959ZM38.0042 60.959H36.6088C36.0451 60.959 35.5882 60.5021 35.5882 59.9383C35.5882 59.3746 36.0451 58.9177 36.6088 58.9177H38.0042C38.568 58.9177 39.0248 59.3746 39.0248 59.9383C39.0248 60.5021 38.5681 60.959 38.0042 60.959ZM32.4226 60.959H31.0272C30.4635 60.959 30.0066 60.5021 30.0066 59.9383C30.0066 59.3746 30.4635 58.9177 31.0272 58.9177H32.4226C32.9863 58.9177 33.4432 59.3746 33.4432 59.9383C33.4432 60.5021 32.9863 60.959 32.4226 60.959ZM47.7721 60.9586C47.209 60.9586 46.7521 60.5025 46.7515 59.9392C46.7508 59.3757 47.207 58.918 47.7708 58.9172C48.1935 58.9166 48.6197 58.89 49.0377 58.8381C49.5962 58.7703 50.1068 59.1663 50.1763 59.7255C50.2455 60.285 49.8481 60.7946 49.289 60.8641C48.789 60.9258 48.279 60.9578 47.7736 60.9585C47.7731 60.9586 47.7725 60.9586 47.7721 60.9586ZM53.1301 59.6127C52.7656 59.6127 52.4135 59.417 52.2293 59.0735C51.9632 58.5767 52.1502 57.9581 52.6473 57.692C53.0178 57.4936 53.3806 57.2693 53.7261 57.0255C54.187 56.6988 54.8238 56.8095 55.1485 57.2703C55.4737 57.7308 55.3641 58.3677 54.9036 58.6927C54.49 58.9847 54.0551 59.2536 53.6108 59.4915C53.4577 59.5735 53.2926 59.6127 53.1301 59.6127ZM57.2223 55.9022C57.0266 55.9022 56.829 55.8461 56.6546 55.7291C56.1865 55.4148 56.0618 54.7808 56.3758 54.3127C56.6113 53.9618 56.8273 53.5935 57.0171 53.2176C57.2716 52.714 57.8862 52.5136 58.3886 52.7671C58.8916 53.0216 59.0932 53.6356 58.8391 54.1386C58.6112 54.5888 58.353 55.03 58.071 55.4502C57.8738 55.7437 57.551 55.9022 57.2223 55.9022ZM59.0946 50.703C59.0611 50.703 59.0271 50.7013 58.993 50.698C58.4318 50.6425 58.0222 50.1428 58.0776 49.582C58.1118 49.2361 58.1291 48.885 58.1291 48.5381L58.1265 48.3098C58.1152 47.7461 58.5627 47.2802 59.1262 47.269C59.6857 47.2443 60.1562 47.7056 60.1671 48.2687L60.1705 48.5342C60.1705 48.9518 60.1498 49.3705 60.109 49.7827C60.0567 50.3096 59.6128 50.703 59.0946 50.703ZM57.3572 44.6017C57.1975 44.2127 57.0117 43.829 56.8051 43.4611C56.5287 42.9701 56.7027 42.3477 57.1941 42.0713C57.6855 41.7952 58.3075 41.9687 58.5838 42.4603C58.8317 42.9006 59.0543 43.3607 59.2457 43.8275C59.4597 44.3487 59.2102 44.9451 58.6886 45.1587C58.1677 45.3735 57.5707 45.1231 57.3572 44.6017ZM54.3771 40.5493C54.0522 40.2792 53.7073 40.0267 53.3528 39.7991C52.8783 39.4945 52.7408 38.8628 53.0455 38.3887C53.3505 37.915 53.9817 37.7771 54.4558 38.0813C54.8805 38.3541 55.2927 38.6561 55.6815 38.9791C56.1151 39.3392 56.1745 39.9828 55.8143 40.4163C55.455 40.8492 54.8112 40.9102 54.3771 40.5493ZM49.845 38.3702C49.433 38.2855 49.0101 38.2257 48.5881 38.1918C48.0262 38.147 47.607 37.655 47.6522 37.0931C47.6971 36.5312 48.1888 36.1047 48.751 36.1572C49.2556 36.1975 49.7616 36.2692 50.255 36.3705C50.8071 36.4835 51.163 37.0226 51.05 37.5752C50.9383 38.1198 50.4076 38.4833 49.845 38.3702ZM44.4846 38.1586C43.4498 38.1565 43.3355 38.1637 43.0433 38.1506C42.4805 38.125 42.0446 37.648 42.0698 37.0847C42.0955 36.5216 42.5552 36.0857 43.1357 36.1112C43.359 36.1213 43.4471 36.1156 44.4846 36.1172C45.0483 36.1172 45.5052 36.5741 45.5052 37.1378C45.5052 37.7016 45.0483 38.1586 44.4846 38.1586ZM38.5986 36.4911C38.18 36.1595 37.7936 35.7831 37.4511 35.3725C37.09 34.9396 37.1481 34.296 37.581 33.9348C38.0136 33.574 38.6577 33.6322 39.0186 34.0647C39.2715 34.3677 39.5565 34.6458 39.8658 34.8903C40.3077 35.2402 40.3825 35.8825 40.0326 36.3243C39.683 36.7655 39.0421 36.8412 38.5986 36.4911ZM36.6926 31.9207C36.1613 31.9207 35.7135 31.5097 35.6756 30.9718C35.6391 30.4541 35.6512 29.9203 35.7251 29.3721C35.8005 28.8132 36.3195 28.4248 36.873 28.4966C37.4315 28.572 37.8235 29.086 37.7485 29.6445C37.6978 30.0181 37.6825 30.4152 37.7116 30.8282C37.7533 31.4191 37.2855 31.9207 36.6926 31.9207ZM38.5132 26.8146C38.2613 26.8146 38.0092 26.7218 37.8118 26.5352C37.4025 26.1475 37.385 25.5016 37.7723 25.0923C38.1408 24.7033 38.5495 24.3517 38.9877 24.0477C39.4512 23.7265 40.0867 23.8407 40.4081 24.3038C40.7297 24.7666 40.6151 25.4026 40.152 25.7242C39.8287 25.9488 39.527 26.2083 39.255 26.4957C39.0541 26.7076 38.784 26.8146 38.5132 26.8146ZM44.9052 24.7095H43.5098C42.9461 24.7095 42.4892 24.2526 42.4892 23.6888C42.4892 23.1251 42.9461 22.6682 43.5098 22.6682H44.9052C45.469 22.6682 45.9258 23.1251 45.9258 23.6888C45.9258 24.2526 45.469 24.7095 44.9052 24.7095Z" fill="#B55D36"/>
<path d="M21.2215 60.959H20.5411C19.9774 60.959 19.5205 60.5021 19.5205 59.9384C19.5205 59.3746 19.9774 58.9177 20.5411 58.9177H21.2215C21.7853 58.9177 22.2421 59.3746 22.2421 59.9384C22.2421 60.5021 21.7853 60.959 21.2215 60.959Z" fill="#B55D36"/>
<path d="M15.7174 63.9802C21.3091 63.9802 25.8422 62.1707 25.8422 59.9385C25.8422 57.7063 21.3091 55.8967 15.7174 55.8967C10.1257 55.8967 5.59265 57.7063 5.59265 59.9385C5.59265 62.1707 10.1257 63.9802 15.7174 63.9802Z" fill="#FED8C7"/>
<path d="M1.0199 33.0925C1.0199 24.9759 7.59447 18.395 15.7174 18.395C23.8337 18.395 30.4148 24.9762 30.4149 33.0925C30.4149 34.5915 29.8743 36.5824 28.9209 38.8867C27.9767 41.169 26.6667 43.6677 25.2145 46.153C22.311 51.1223 18.8834 55.963 16.8047 58.7872C16.2635 59.5224 15.1712 59.5224 14.6301 58.7872C12.5514 55.9631 9.12382 51.1223 6.22027 46.153C4.76812 43.6678 3.45813 41.169 2.51389 38.8867C1.56054 36.5824 1.0199 34.5915 1.0199 33.0925ZM4.83077 33.0925C4.83077 39.1087 9.70124 43.9791 15.7174 43.9791C21.7262 43.9791 26.604 39.1091 26.604 33.0925C26.604 27.0832 21.7267 22.2059 15.7174 22.2059C9.70079 22.2059 4.83077 27.0837 4.83077 33.0925Z" fill="#FAF0EC" stroke="#B55D36" stroke-width="2"/>
<path d="M55.3282 25.6962C58.4102 25.6962 60.9087 24.6988 60.9087 23.4685C60.9087 22.2381 58.4102 21.2407 55.3282 21.2407C52.2462 21.2407 49.7477 22.2381 49.7477 23.4685C49.7477 24.6988 52.2462 25.6962 55.3282 25.6962Z" fill="#FED8C7"/>
<path d="M55.3281 1.01978C51.0991 1.01978 47.6761 4.4459 47.6761 8.67177C47.6761 9.40831 47.9466 10.4397 48.4655 11.6938C48.9752 12.9258 49.6864 14.2837 50.4811 15.6439C52.0699 18.363 53.9485 21.0165 55.0904 22.5679C55.2092 22.7293 55.4472 22.7293 55.566 22.5679L55.3281 1.01978ZM55.3281 1.01978C59.5539 1.01978 62.9802 4.44606 62.9803 8.67177C62.9803 9.4083 62.7098 10.4397 62.1909 11.6938M55.3281 1.01978L62.1909 11.6938M62.1909 11.6938C61.6812 12.9258 60.97 14.2837 60.1753 15.6439M62.1909 11.6938L60.1753 15.6439M60.1753 15.6439C58.5865 18.3629 56.7079 21.0164 55.5661 22.5678L60.1753 15.6439ZM48.8789 8.67165C48.8789 12.2354 51.7644 15.1209 55.3281 15.1209C58.8877 15.1209 61.7774 12.236 61.7774 8.67165C61.7774 5.11162 58.8882 2.2224 55.3281 2.2224C51.7639 2.2224 48.8789 5.11206 48.8789 8.67165Z" fill="#FAF0EC" stroke="#B55D36" stroke-width="2"/>
</svg>
