<svg width="36" height="42" viewBox="0 0 36 42" fill="none" xmlns="http://www.w3.org/2000/svg">
<path d="M15.5593 3.27937V4.81237H3.35593C2.70862 4.81237 2.08783 5.08799 1.63011 5.57859C1.1724 6.0692 0.915254 6.7346 0.915254 7.42842V12.6605C0.915254 13.3543 1.1724 14.0197 1.63011 14.5103C2.08783 15.0009 2.70862 15.2765 3.35593 15.2765H15.5593V17.8926H4.57627C4.19737 17.8926 3.82367 17.9871 3.48477 18.1688C3.14587 18.3504 2.85107 18.6141 2.62373 18.939L0.244068 22.3399C0.0856408 22.5663 0 22.8417 0 23.1247C0 23.4077 0.0856408 23.6831 0.244068 23.9095L2.62373 27.3103C2.85107 27.6352 3.14587 27.899 3.48477 28.0806C3.82367 28.2622 4.19737 28.3568 4.57627 28.3568H15.5593V41.437H20.4407V28.3568H32.6441C33.2914 28.3568 33.9122 28.0811 34.3699 27.5905C34.8276 27.0999 35.0847 26.4345 35.0847 25.7407V20.5086C35.0847 19.8148 34.8276 19.1494 34.3699 18.6588C33.9122 18.1682 33.2914 17.8926 32.6441 17.8926H20.4407V15.2765H31.4237C31.8026 15.2765 32.1763 15.182 32.5152 15.0004C32.8541 14.8187 33.1489 14.555 33.3763 14.2301L35.7559 10.8293C35.9144 10.6029 36 10.3275 36 10.0445C36 9.76144 35.9144 9.48606 35.7559 9.25965L33.3763 5.85879C33.1489 5.53389 32.8541 5.27018 32.5152 5.08856C32.1763 4.90693 31.8026 4.81237 31.4237 4.81237H20.4407V3.27937C20.4407 2.58556 20.1835 1.92015 19.7258 1.42955C19.2681 0.938948 18.6473 0.66333 18 0.66333C17.3527 0.66333 16.7319 0.938948 16.2742 1.42955C15.8165 1.92015 15.5593 2.58556 15.5593 3.27937ZM31.4237 7.42842L33.2542 10.0445L31.4237 12.6605H3.35593V7.42842H31.4237ZM32.6441 20.5086V25.7407H4.57627L2.74576 23.1247L4.57627 20.5086H32.6441Z" fill="white"/>
</svg>
