<svg width="76" height="76" viewBox="0 0 76 76" fill="none" xmlns="http://www.w3.org/2000/svg">
<g clip-path="url(#clip0_18_2528)">
<path d="M9.57373 19.7847L1.41309 43.5798L11.1395 46.9156L19.3002 23.1204L9.57373 19.7847Z" fill="#00C1F3"/>
<path d="M26.3658 21.7994L25.4197 22.2647C24.241 22.8386 22.8606 22.9161 21.6353 22.4818L20.0533 21.9235C19.9602 21.8614 19.8672 21.8149 19.7741 21.7839L10.0339 18.4493C9.30494 18.2011 8.49843 18.5888 8.25027 19.3178L0.0765624 43.1255C-0.0475167 43.4822 -0.016497 43.87 0.138602 44.1957C0.293701 44.5214 0.588389 44.785 0.945116 44.9091L10.6698 48.2437C10.8249 48.2903 10.98 48.3213 11.1196 48.3213C11.709 48.3213 12.2518 47.9491 12.4535 47.3752L20.1619 24.9479L20.6892 25.134C22.6279 25.8164 24.7993 25.6924 26.6605 24.7928L27.6066 24.3275C28.7699 23.7536 30.1347 23.6761 31.36 24.0949L49.2429 30.2523C49.0568 30.9968 48.6845 31.8808 48.0021 32.3616C47.2421 32.889 46.1099 32.889 44.621 32.3771L36.6489 29.6474C36.2766 29.5233 35.8734 29.5543 35.5322 29.7404C35.1909 29.9266 34.9428 30.2523 34.8342 30.6245C34.8187 30.671 33.7175 34.7967 30.1968 36.6889C27.9788 37.8831 25.2181 37.9297 21.9765 36.8285C21.2476 36.5803 20.441 36.9681 20.1929 37.697C19.9447 38.426 20.3325 39.2325 21.0614 39.4807C22.9226 40.1166 24.6752 40.4423 26.3038 40.4423C28.196 40.4423 29.9331 40.0235 31.5151 39.1705C34.6636 37.4799 36.2921 34.5175 37.0366 32.7494L43.6904 35.0293C46.0634 35.8513 48.0486 35.7273 49.5841 34.6571C52.0502 32.951 52.1743 29.4923 52.1898 29.3372C52.2053 28.7168 51.8175 28.174 51.2437 27.9723L32.2596 21.4272C30.3519 20.7757 28.196 20.9153 26.3658 21.7994ZM10.2666 45.1263L3.19405 42.7067L10.4372 21.5667L17.5097 23.9863L10.2666 45.1263Z" fill="#13274B"/>
<path d="M54.2834 24.463L65.3391 47.0574L74.5745 42.5384L63.5188 19.944L54.2834 24.463Z" fill="#A3C8D4"/>
<path d="M63.6206 46.7238L60.2859 49.7948C57.2615 52.571 53.8493 54.913 50.158 56.7122L32.4612 65.3667C31.6857 65.7545 30.7396 65.4287 30.3519 64.6377C29.9641 63.8622 30.2898 62.9161 31.0808 62.5284L31.298 62.4198L40.9761 57.6893C41.6741 57.3481 41.9688 56.5106 41.6275 55.8126C41.2863 55.1147 40.4488 54.82 39.7508 55.1612L30.0727 59.8917L25.2026 62.2802C24.4271 62.668 23.481 62.3423 23.0932 61.5513C22.9071 61.179 22.8761 60.7448 23.0157 60.357C23.1553 59.9538 23.4344 59.6436 23.8067 59.4574L27.4825 57.6583L37.9982 52.509C38.6962 52.1678 38.9909 51.3303 38.6496 50.6323C38.3084 49.9344 37.4709 49.6397 36.7729 49.9809L26.2417 55.1457L25.8385 55.3473L20.8133 57.8134C20.441 57.9995 20.0068 58.0305 19.619 57.8909C19.2158 57.7513 18.9056 57.4722 18.7194 57.0999C18.3317 56.3244 18.6574 55.3783 19.4484 54.9906L21.1855 54.1375L24.7373 52.4004L25.7299 51.9196L33.8881 47.9181C34.5861 47.5769 34.8807 46.7393 34.5395 46.0414C34.1983 45.3434 33.3608 45.0487 32.6628 45.39L23.8222 49.7172L19.9602 51.6094C19.1847 51.9817 18.2386 51.6715 17.8509 50.8805C17.6648 50.5082 17.6337 50.074 17.7733 49.6862C17.9129 49.2829 18.1921 48.9727 18.5643 48.7866L25.3111 45.483C26.0091 45.1418 26.3038 44.3043 25.9626 43.6063C25.6213 42.9084 24.7838 42.6137 24.0859 42.9549L17.3391 46.2585C16.2844 46.7703 15.4934 47.6699 15.1211 48.7711C14.7489 49.8723 14.8109 51.0666 15.3228 52.1213C15.6485 52.7727 16.1138 53.3155 16.6721 53.7188C15.695 55.0061 15.4469 56.7742 16.2068 58.3252C16.7187 59.3799 17.6182 60.1709 18.7194 60.5431C19.1847 60.6982 19.65 60.7758 20.1153 60.7758C20.0998 61.4737 20.2394 62.1717 20.5651 62.8076C21.3251 64.3586 22.8916 65.2581 24.5046 65.2581C25.156 65.2581 25.8075 65.1185 26.4279 64.8083L27.4205 64.3275C27.467 64.8549 27.6066 65.3667 27.8393 65.863C28.5992 67.414 30.1657 68.3136 31.7788 68.3136C32.4302 68.3136 33.0816 68.174 33.702 67.8638L51.3988 59.2093C55.3383 57.2861 58.9676 54.8045 62.1936 51.8421L66.1487 48.1973L75.2065 43.7614C75.9044 43.4202 76.1991 42.5827 75.8579 41.8847L64.7838 19.3178C64.6132 18.9766 64.334 18.7285 63.9773 18.6044C63.6206 18.4803 63.2328 18.5113 62.9071 18.6664L53.6632 23.1798C52.9653 23.521 52.6706 24.3586 53.0118 25.0565L63.6206 46.7238ZM62.8761 21.8149L72.6938 41.9002L65.9781 45.1883L56.1603 25.103L62.8761 21.8149Z" fill="#13274B"/>
<path fill-rule="evenodd" clip-rule="evenodd" d="M26.2391 9.58344C26.4166 9.15676 27.021 9.15676 27.1985 9.58344L28.0226 11.5649L30.1617 11.7364C30.6224 11.7733 30.8092 12.3482 30.4582 12.6488L28.8284 14.0449L29.3263 16.1323C29.4336 16.5818 28.9446 16.9371 28.5502 16.6962L26.7188 15.5776L24.8874 16.6962C24.493 16.9371 24.004 16.5818 24.1113 16.1323L24.6092 14.0449L22.9794 12.6488C22.6284 12.3482 22.8152 11.7733 23.2759 11.7364L25.415 11.5649L26.2391 9.58344Z" fill="#13274B"/>
<path fill-rule="evenodd" clip-rule="evenodd" d="M38.1141 9.58344C38.2916 9.15676 38.896 9.15676 39.0735 9.58344L39.8976 11.5649L42.0367 11.7364C42.4974 11.7733 42.6842 12.3482 42.3332 12.6488L40.7034 14.0449L41.2013 16.1323C41.3086 16.5818 40.8196 16.9371 40.4252 16.6962L38.5938 15.5776L36.7624 16.6962C36.368 16.9371 35.879 16.5818 35.9863 16.1323L36.4842 14.0449L34.8544 12.6488C34.5034 12.3482 34.6902 11.7733 35.1509 11.7364L37.29 11.5649L38.1141 9.58344Z" fill="#13274B"/>
<path fill-rule="evenodd" clip-rule="evenodd" d="M49.9891 9.58344C50.1666 9.15676 50.771 9.15676 50.9485 9.58344L51.7726 11.5649L53.9117 11.7364C54.3724 11.7733 54.5592 12.3482 54.2082 12.6488L52.5784 14.0449L53.0763 16.1323C53.1836 16.5818 52.6946 16.9371 52.3002 16.6962L50.4688 15.5776L48.6374 16.6962C48.243 16.9371 47.754 16.5818 47.8613 16.1323L48.3592 14.0449L46.7294 12.6488C46.3784 12.3482 46.5652 11.7733 47.0259 11.7364L49.165 11.5649L49.9891 9.58344Z" fill="#13274B"/>
</g>
<defs>
<clipPath id="clip0_18_2528">
<rect width="76" height="76" fill="white"/>
</clipPath>
</defs>
</svg>
