<svg width="76" height="76" viewBox="0 0 76 76" fill="none" xmlns="http://www.w3.org/2000/svg">
<circle cx="38" cy="32.0625" r="7.125" fill="#00C1F3"/>
<path fill-rule="evenodd" clip-rule="evenodd" d="M36.87 56.292C36.9317 56.3277 36.9802 56.3553 37.0146 56.3746L37.0716 56.4064C37.5268 56.6564 38.0915 56.6544 38.5471 56.4073L38.6056 56.3746C38.64 56.3553 38.6885 56.3277 38.7502 56.292C38.8735 56.2205 39.0498 56.1162 39.2715 55.9798C39.7147 55.7069 40.3402 55.3045 41.0875 54.7766C42.5795 53.7226 44.5703 52.1588 46.5654 50.1161C50.5363 46.0504 54.6607 39.942 54.6607 32.0862C54.6607 22.7799 47.1164 15.2356 37.8101 15.2356C28.5038 15.2356 20.9595 22.7799 20.9595 32.0862C20.9595 39.942 25.0839 46.0504 29.0548 50.1161C31.0499 52.1588 33.0407 53.7226 34.5327 54.7766C35.2799 55.3045 35.9055 55.7069 36.3487 55.9798C36.5704 56.1162 36.7467 56.2205 36.87 56.292ZM37.8101 38.2137C41.1942 38.2137 43.9376 35.4703 43.9376 32.0862C43.9376 28.7021 41.1942 25.9587 37.8101 25.9587C34.426 25.9587 31.6826 28.7021 31.6826 32.0862C31.6826 35.4703 34.426 38.2137 37.8101 38.2137Z" fill="white" stroke="#13274B" stroke-width="3" stroke-linejoin="round"/>
<path d="M57 41.4199H63.84L69.54 65.7399H6.45996L12.16 41.4199H19" stroke="#13274B" stroke-width="3" stroke-linecap="round"/>
</svg>
