<svg width="76" height="76" viewBox="0 0 76 76" fill="none" xmlns="http://www.w3.org/2000/svg">
<path d="M24.9375 16.9219L11.5781 23.75V57.5938L13.9531 58.7812L24.9375 52.8438L32.9531 56.4062L34.4375 21.0781L24.9375 16.9219Z" fill="#00C1F3" stroke="#00C1F3"/>
<path d="M25.7292 25.1141V45.8299M40.7708 30.7639V51.4797M42.0321 60.2643L54.2535 54.1437C55.2089 53.6652 55.8125 52.687 55.8125 51.617V20.2686C55.8125 18.1686 53.6061 16.8028 51.7309 17.7419L42.0321 22.5992C41.2381 22.9968 40.3035 22.9968 39.5096 22.5992L26.9904 16.3295C26.1965 15.9318 25.2619 15.9318 24.4679 16.3295L12.2465 22.4501C11.2911 22.9286 10.6875 23.9067 10.6875 24.9767V56.3252C10.6875 58.4251 12.8939 59.791 14.7691 58.8518L24.4679 53.9946C25.2619 53.5969 26.1965 53.5969 26.9904 53.9946L39.5096 60.2643C40.3035 60.6619 41.2381 60.6619 42.0321 60.2643Z" stroke="#13274B" stroke-width="5" stroke-linecap="round" stroke-linejoin="round"/>
<path d="M45.3667 52.9689C45.2993 53.3298 45.4351 53.6987 45.7206 53.9297C46.006 54.1607 46.395 54.2167 46.734 54.0756L50.6515 52.4447C51.8504 51.9456 52.906 51.1557 53.7231 50.1463L73.0872 26.2216C74.4215 24.5731 74.1667 22.1551 72.5182 20.8209C70.8697 19.4866 68.4517 19.7413 67.1175 21.3898L64.8433 24.1996L47.7533 45.3145C46.9363 46.3239 46.3837 47.521 46.1454 48.7976L45.3667 52.9689Z" fill="#13274B" stroke="#00C1F3" stroke-width="2" stroke-linecap="round" stroke-linejoin="round"/>
</svg>
