<svg width="64" height="64" viewBox="0 0 64 64" fill="none" xmlns="http://www.w3.org/2000/svg">
<path d="M11 17.5001C11.5163 15.2737 11.9585 14.0345 13 12.0001C13.9624 10.12 14.5745 9.05859 16 7.50007C18.0837 5.22189 19.717 4.33678 22.5 3.00007C24.7264 1.9307 26.0521 1.32889 28.5 1.00007C30.2417 0.76611 31.2469 0.876812 33 1.00007C35.3696 1.16669 36.7403 1.26742 39 2.00007C41.7424 2.88926 43.2475 3.70066 45.5 5.50007C47.5525 7.13969 48.5209 8.32903 50 10.5001C51.4749 12.6651 52.2039 14.0042 53 16.5001C53.6634 18.5799 54.0383 19.8173 54 22.0001C53.965 23.9911 53.5074 25.0745 53 27.0001C52.1497 30.2266 51.3557 31.9513 50 35.0001C47.6186 40.3556 45.6266 43.0425 42.5 48.0001C38.6856 54.0482 32 63.0001 32 63.0001C32 63.0001 29.5132 59.9908 28 58.0001C22.4262 50.6676 19.5477 46.2735 15.5 38.0001C13.5394 33.9927 11.9027 31.869 11 27.5001C10.7206 26.1479 10.5974 25.3773 10.5 24.0001C10.4036 22.6366 10.3793 21.8616 10.5 20.5001C10.6048 19.317 10.7317 18.6571 11 17.5001Z" fill="#FAF0EC"/>
<path d="M32 0C19.5 0 9.40002 10.1 9.40002 22.6C9.40002 34.7 30.4 62.4 31.2 63.6C31.4 63.8 31.7 64 32 64C32.3 64 32.6 63.9 32.8 63.6C33.7 62.4 54.6 34.7 54.6 22.6C54.6 10.1 44.5 0 32 0ZM32 61.4C28.2 56.2 11.3 32.8 11.3 22.6C11.3 11.2 20.6 1.9 32 1.9C43.4 1.9 52.7 11.2 52.7 22.6C52.7 32.9 35.8 56.2 32 61.4Z" fill="#B55D36"/>
<path d="M32 10.3C25.2 10.3 19.7 15.8 19.7 22.6001C19.7 29.4001 25.2 35.0001 32 35.0001C38.8 35.0001 44.3 29.5001 44.3 22.7001C44.3 15.8 38.8 10.3 32 10.3ZM32 33.0001C26.3 33.0001 21.6 28.3001 21.6 22.6001C21.6 16.9001 26.3 12.2 32 12.2C37.7 12.2 42.4 16.9001 42.4 22.6001C42.4 28.4001 37.7 33.0001 32 33.0001Z" fill="#B55D36"/>
</svg>
