<svg width="36" height="28" viewBox="0 0 36 28" fill="none" xmlns="http://www.w3.org/2000/svg">
<path d="M33.75 27.0229C33.75 27.0229 36 27.0229 36 24.8143C36 22.6057 33.75 15.98 24.75 15.98C15.75 15.98 13.5 22.6057 13.5 24.8143C13.5 27.0229 15.75 27.0229 15.75 27.0229H33.75ZM15.7995 24.8143C15.7829 24.8121 15.7664 24.8091 15.75 24.8055C15.7522 24.2224 16.1257 22.5306 17.46 21.0067C18.702 19.5778 20.8845 18.1886 24.75 18.1886C28.6133 18.1886 30.7957 19.58 32.04 21.0067C33.3742 22.5306 33.7455 24.2246 33.75 24.8055L33.732 24.8099C33.7215 24.8116 33.711 24.8131 33.7005 24.8143H15.7995ZM24.75 11.5629C25.9435 11.5629 27.0881 11.0975 27.932 10.2691C28.7759 9.44075 29.25 8.31724 29.25 7.14574C29.25 5.97424 28.7759 4.85072 27.932 4.02234C27.0881 3.19397 25.9435 2.72859 24.75 2.72859C23.5565 2.72859 22.4119 3.19397 21.568 4.02234C20.7241 4.85072 20.25 5.97424 20.25 7.14574C20.25 8.31724 20.7241 9.44075 21.568 10.2691C22.4119 11.0975 23.5565 11.5629 24.75 11.5629ZM31.5 7.14574C31.5 8.01584 31.3254 8.87742 30.9862 9.68129C30.647 10.4852 30.1498 11.2156 29.523 11.8308C28.8962 12.4461 28.1521 12.9341 27.3331 13.2671C26.5142 13.6001 25.6364 13.7715 24.75 13.7715C23.8636 13.7715 22.9858 13.6001 22.1669 13.2671C21.3479 12.9341 20.6038 12.4461 19.977 11.8308C19.3502 11.2156 18.853 10.4852 18.5138 9.68129C18.1746 8.87742 18 8.01584 18 7.14574C18 5.38849 18.7112 3.70321 19.977 2.46065C21.2429 1.21808 22.9598 0.52002 24.75 0.52002C26.5402 0.52002 28.2571 1.21808 29.523 2.46065C30.7888 3.70321 31.5 5.38849 31.5 7.14574ZM15.606 16.5984C14.706 16.3202 13.7782 16.1374 12.8385 16.0529C12.3105 16.0036 11.7804 15.9793 11.25 15.98C2.25 15.98 0 22.6057 0 24.8143C0 26.2874 0.74925 27.0229 2.25 27.0229H11.736C11.4024 26.3334 11.2361 25.5775 11.25 24.8143C11.25 22.5837 12.0983 20.3044 13.7025 18.4006C14.2493 17.7513 14.886 17.1439 15.606 16.5984ZM11.07 18.1886C9.73835 20.1526 9.01899 22.4552 9 24.8143H2.25C2.25 24.2401 2.619 22.5395 3.96 21.0067C5.18625 19.6021 7.317 18.2328 11.07 18.1908V18.1886ZM3.375 8.25002C3.375 6.49277 4.08616 4.8075 5.35203 3.56493C6.6179 2.32237 8.33479 1.62431 10.125 1.62431C11.9152 1.62431 13.6321 2.32237 14.898 3.56493C16.1638 4.8075 16.875 6.49277 16.875 8.25002C16.875 10.0073 16.1638 11.6925 14.898 12.9351C13.6321 14.1777 11.9152 14.8757 10.125 14.8757C8.33479 14.8757 6.6179 14.1777 5.35203 12.9351C4.08616 11.6925 3.375 10.0073 3.375 8.25002ZM10.125 3.83288C8.93153 3.83288 7.78693 4.29825 6.94302 5.12663C6.09911 5.955 5.625 7.07852 5.625 8.25002C5.625 9.42152 6.09911 10.545 6.94302 11.3734C7.78693 12.2018 8.93153 12.6672 10.125 12.6672C11.3185 12.6672 12.4631 12.2018 13.307 11.3734C14.1509 10.545 14.625 9.42152 14.625 8.25002C14.625 7.07852 14.1509 5.955 13.307 5.12663C12.4631 4.29825 11.3185 3.83288 10.125 3.83288Z" fill="white"/>
</svg>
