<svg width="40" height="40" viewBox="0 0 40 40" fill="none" xmlns="http://www.w3.org/2000/svg">
<path d="M25.6132 23.5158C26.7994 21.901 27.5 19.9073 27.5 17.75C27.5 12.3652 23.1348 8 17.75 8C12.3652 8 8 12.3652 8 17.75C8 23.1348 12.3652 27.5 17.75 27.5C19.9079 27.5 21.902 26.799 23.5171 25.6123L23.5158 25.6132C23.5601 25.6732 23.6093 25.7307 23.6636 25.785L29.4393 31.5607C30.0251 32.1465 30.9749 32.1465 31.5607 31.5607C32.1465 30.9749 32.1465 30.0251 31.5607 29.4393L25.785 23.6636C25.7307 23.6093 25.6732 23.5601 25.6132 23.5158ZM26 17.75C26 22.3063 22.3063 26 17.75 26C13.1937 26 9.5 22.3063 9.5 17.75C9.5 13.1937 13.1937 9.5 17.75 9.5C22.3063 9.5 26 13.1937 26 17.75Z" fill="white"/>
</svg>
