<svg width="19" height="23" viewBox="0 0 19 23" fill="none" xmlns="http://www.w3.org/2000/svg">
<path d="M5.31852 21.2654H2.72741C2.26927 21.2654 1.8299 21.0535 1.50595 20.6764C1.18199 20.2993 1 19.7878 1 19.2545V12.2164C1 11.6831 1.18199 11.1716 1.50595 10.7945C1.8299 10.4174 2.26927 10.2055 2.72741 10.2055H5.31852M11.3645 8.19461V4.17283C11.3645 3.37285 11.0915 2.60563 10.6055 2.03996C10.1196 1.47429 9.46055 1.15649 8.77334 1.15649L5.31852 10.2055V21.2654H15.0611C15.4777 21.2709 15.882 21.1009 16.1994 20.7868C16.5168 20.4727 16.7261 20.0356 16.7885 19.5561L17.9804 10.5071C18.018 10.2189 18.0013 9.92466 17.9315 9.64471C17.8617 9.36477 17.7404 9.10584 17.5761 8.88587C17.4118 8.66589 17.2084 8.49014 16.9799 8.37078C16.7514 8.25142 16.5034 8.19131 16.253 8.19461H11.3645Z" stroke="#007CAA" stroke-width="2" stroke-linecap="round" stroke-linejoin="round"/>
</svg>
