<svg width="224" height="72" viewBox="0 0 224 72" fill="none" xmlns="http://www.w3.org/2000/svg">
<path d="M36.0003 43.5C10.3503 43.5 -4.64974 35.55 4.80025 27C13.0503 19.5 24.0003 15 36.0003 15C46.8003 15 56.7003 18.6 64.5003 24.75C75.4502 33.3 61.6503 43.5 36.0003 43.5Z" fill="#FFE082"/>
<path d="M34.5 39C34.5 48.15 27.15 55.5 18 55.5C8.85 55.5 1.5 48.15 1.5 39C1.5 29.85 8.85 22.5 18 22.5C27.15 22.5 34.5 29.85 34.5 39ZM54 22.5C44.85 22.5 37.5 29.85 37.5 39C37.5 48.15 44.85 55.5 54 55.5C63.15 55.5 70.5 48.15 70.5 39C70.5 29.85 63.15 22.5 54 22.5Z" fill="white"/>
<path d="M18 36C17.2044 36 16.4413 36.3161 15.8787 36.8787C15.3161 37.4413 15 38.2044 15 39C15 39.7956 15.3161 40.5587 15.8787 41.1213C16.4413 41.6839 17.2044 42 18 42C18.7956 42 19.5587 41.6839 20.1213 41.1213C20.6839 40.5587 21 39.7956 21 39C21 38.2044 20.6839 37.4413 20.1213 36.8787C19.5587 36.3161 18.7956 36 18 36Z" fill="#F44336"/>
<path d="M54 36C53.2044 36 52.4413 36.3161 51.8787 36.8787C51.3161 37.4413 51 38.2044 51 39C51 39.7956 51.3161 40.5587 51.8787 41.1213C52.4413 41.6839 53.2044 42 54 42C54.7956 42 55.5587 41.6839 56.1213 41.1213C56.6839 40.5587 57 39.7956 57 39C57 38.2044 56.6839 37.4413 56.1213 36.8787C55.5587 36.3161 54.7956 36 54 36Z" fill="#00C853"/>
<path d="M18 25.5C25.5 25.5 31.5 31.5 31.5 39C31.5 46.5 25.5 52.5 18 52.5C10.5 52.5 4.5 46.5 4.5 39C4.5 31.5 10.5 25.5 18 25.5ZM18 21C8.1 21 0 29.1 0 39C0 48.9 8.1 57 18 57C27.9 57 36 48.9 36 39C36 29.1 27.9 21 18 21Z" fill="#222222"/>
<path d="M18 33C21.3 33 24 35.7 24 39C24 42.3 21.3 45 18 45C14.7 45 12 42.3 12 39C12 35.7 14.7 33 18 33ZM18 30C13.05 30 9 34.05 9 39C9 43.95 13.05 48 18 48C22.95 48 27 43.95 27 39C27 34.05 22.95 30 18 30ZM54 25.5C61.5 25.5 67.5 31.5 67.5 39C67.5 46.5 61.5 52.5 54 52.5C46.5 52.5 40.5 46.5 40.5 39C40.5 31.5 46.5 25.5 54 25.5ZM54 21C44.1 21 36 29.1 36 39C36 48.9 44.1 57 54 57C63.9 57 72 48.9 72 39C72 29.1 63.9 21 54 21Z" fill="#222222"/>
<path d="M54 33C57.3 33 60 35.7 60 39C60 42.3 57.3 45 54 45C50.7 45 48 42.3 48 39C48 35.7 50.7 33 54 33ZM54 30C49.05 30 45 34.05 45 39C45 43.95 49.05 48 54 48C58.95 48 63 43.95 63 39C63 34.05 58.95 30 54 30ZM36 39L31.5 49.5L36 55.5V39ZM36 39L40.5 49.5L36 55.5V39ZM54 21H72C72 21 67.35 26.7 67.5 31.5C63.15 24 54 21 54 21ZM18 21H0C0 21 4.65 26.7 4.5 31.5C8.85 24 18 21 18 21Z" fill="#222222"/>
<path d="M35.9996 15C26.5496 15 17.6996 17.85 10.3496 22.8C12.5996 21.6 15.2996 21 17.9996 21C18.5996 21 19.1996 21 19.9496 21.15C25.0496 19.05 30.4496 18 35.9996 18C41.5496 18 47.0996 19.05 52.0496 21.15C52.6496 21.15 53.2496 21 53.9996 21C56.6996 21 59.3996 21.6 61.6496 22.8C54.2996 17.85 45.4496 15 35.9996 15Z" fill="#222222"/>
<path d="M88.1553 14.9219H91.4502C92.1976 14.9219 92.8288 15.0358 93.3438 15.2637C93.8633 15.4915 94.2575 15.8288 94.5264 16.2754C94.7998 16.7174 94.9365 17.262 94.9365 17.9092C94.9365 18.3649 94.8431 18.7819 94.6562 19.1602C94.474 19.5339 94.2096 19.8529 93.8633 20.1172C93.5215 20.377 93.1113 20.5706 92.6328 20.6982L92.2637 20.8418H89.167L89.1533 19.7686H91.4912C91.9652 19.7686 92.3594 19.6865 92.6738 19.5225C92.9883 19.3538 93.2253 19.1283 93.3848 18.8457C93.5443 18.5632 93.624 18.251 93.624 17.9092C93.624 17.5264 93.5488 17.1914 93.3984 16.9043C93.248 16.6172 93.0111 16.3962 92.6875 16.2412C92.3685 16.0817 91.9561 16.002 91.4502 16.002H89.4746V24.875H88.1553V14.9219ZM93.9727 24.875L91.5527 20.3633L92.9268 20.3564L95.3809 24.793V24.875H93.9727ZM99.6602 25.0117C99.1452 25.0117 98.6781 24.9251 98.2588 24.752C97.8441 24.5742 97.4863 24.3258 97.1855 24.0068C96.8893 23.6878 96.6615 23.3096 96.502 22.8721C96.3424 22.4346 96.2627 21.9561 96.2627 21.4365V21.1494C96.2627 20.5479 96.3516 20.0124 96.5293 19.543C96.707 19.069 96.9486 18.668 97.2539 18.3398C97.5592 18.0117 97.9056 17.7633 98.293 17.5947C98.6803 17.4261 99.0814 17.3418 99.4961 17.3418C100.025 17.3418 100.48 17.4329 100.863 17.6152C101.251 17.7975 101.567 18.0527 101.813 18.3809C102.06 18.7044 102.242 19.0872 102.36 19.5293C102.479 19.9668 102.538 20.4453 102.538 20.9648V21.5322H97.0146V20.5H101.273V20.4043C101.255 20.0762 101.187 19.7572 101.068 19.4473C100.954 19.1374 100.772 18.8822 100.521 18.6816C100.271 18.4811 99.929 18.3809 99.4961 18.3809C99.209 18.3809 98.9447 18.4424 98.7031 18.5654C98.4616 18.6839 98.2542 18.8617 98.0811 19.0986C97.9079 19.3356 97.7734 19.625 97.6777 19.9668C97.582 20.3086 97.5342 20.7028 97.5342 21.1494V21.4365C97.5342 21.7874 97.582 22.1178 97.6777 22.4277C97.778 22.7331 97.9215 23.002 98.1084 23.2344C98.2998 23.4668 98.5299 23.6491 98.7988 23.7812C99.0723 23.9134 99.3822 23.9795 99.7285 23.9795C100.175 23.9795 100.553 23.8883 100.863 23.7061C101.173 23.5238 101.444 23.2799 101.677 22.9746L102.442 23.583C102.283 23.8245 102.08 24.0547 101.834 24.2734C101.588 24.4922 101.285 24.6699 100.925 24.8066C100.569 24.9434 100.148 25.0117 99.6602 25.0117ZM106.975 23.9727C107.275 23.9727 107.553 23.9111 107.809 23.7881C108.064 23.665 108.273 23.4964 108.438 23.2822C108.602 23.0635 108.695 22.8151 108.718 22.5371H109.921C109.898 22.9746 109.75 23.3825 109.477 23.7607C109.208 24.1344 108.854 24.4375 108.417 24.6699C107.979 24.8978 107.499 25.0117 106.975 25.0117C106.419 25.0117 105.933 24.9137 105.519 24.7178C105.108 24.5218 104.767 24.2529 104.493 23.9111C104.224 23.5693 104.021 23.1774 103.885 22.7354C103.753 22.2887 103.687 21.8171 103.687 21.3203V21.0332C103.687 20.5365 103.753 20.0671 103.885 19.625C104.021 19.1784 104.224 18.7842 104.493 18.4424C104.767 18.1006 105.108 17.8317 105.519 17.6357C105.933 17.4398 106.419 17.3418 106.975 17.3418C107.553 17.3418 108.059 17.4603 108.492 17.6973C108.925 17.9297 109.265 18.2487 109.511 18.6543C109.761 19.0553 109.898 19.5111 109.921 20.0215H108.718C108.695 19.7161 108.608 19.4404 108.458 19.1943C108.312 18.9482 108.112 18.7523 107.856 18.6064C107.606 18.4561 107.312 18.3809 106.975 18.3809C106.587 18.3809 106.261 18.4583 105.997 18.6133C105.737 18.7637 105.53 18.9688 105.375 19.2285C105.225 19.4837 105.115 19.7686 105.047 20.083C104.983 20.3929 104.951 20.7096 104.951 21.0332V21.3203C104.951 21.6439 104.983 21.9629 105.047 22.2773C105.111 22.5918 105.218 22.8766 105.368 23.1318C105.523 23.387 105.73 23.5921 105.99 23.7471C106.255 23.8975 106.583 23.9727 106.975 23.9727ZM111.008 21.2588V21.1016C111.008 20.5684 111.085 20.0739 111.24 19.6182C111.395 19.1579 111.618 18.7591 111.91 18.4219C112.202 18.0801 112.555 17.8158 112.97 17.6289C113.384 17.4375 113.849 17.3418 114.364 17.3418C114.884 17.3418 115.351 17.4375 115.766 17.6289C116.185 17.8158 116.54 18.0801 116.832 18.4219C117.128 18.7591 117.354 19.1579 117.509 19.6182C117.664 20.0739 117.741 20.5684 117.741 21.1016V21.2588C117.741 21.792 117.664 22.2865 117.509 22.7422C117.354 23.1979 117.128 23.5967 116.832 23.9385C116.54 24.2757 116.187 24.54 115.772 24.7314C115.362 24.9183 114.897 25.0117 114.378 25.0117C113.858 25.0117 113.391 24.9183 112.977 24.7314C112.562 24.54 112.206 24.2757 111.91 23.9385C111.618 23.5967 111.395 23.1979 111.24 22.7422C111.085 22.2865 111.008 21.792 111.008 21.2588ZM112.272 21.1016V21.2588C112.272 21.6279 112.316 21.9766 112.402 22.3047C112.489 22.6283 112.619 22.9154 112.792 23.166C112.97 23.4167 113.191 23.6149 113.455 23.7607C113.719 23.902 114.027 23.9727 114.378 23.9727C114.724 23.9727 115.027 23.902 115.287 23.7607C115.551 23.6149 115.77 23.4167 115.943 23.166C116.117 22.9154 116.246 22.6283 116.333 22.3047C116.424 21.9766 116.47 21.6279 116.47 21.2588V21.1016C116.47 20.737 116.424 20.3929 116.333 20.0693C116.246 19.7412 116.114 19.4518 115.937 19.2012C115.763 18.946 115.545 18.7454 115.28 18.5996C115.021 18.4538 114.715 18.3809 114.364 18.3809C114.018 18.3809 113.713 18.4538 113.448 18.5996C113.188 18.7454 112.97 18.946 112.792 19.2012C112.619 19.4518 112.489 19.7412 112.402 20.0693C112.316 20.3929 112.272 20.737 112.272 21.1016ZM120.585 18.9482V24.875H119.313V17.4785H120.517L120.585 18.9482ZM120.325 20.8965L119.737 20.876C119.742 20.3701 119.808 19.903 119.936 19.4746C120.063 19.0417 120.252 18.6657 120.503 18.3467C120.754 18.0277 121.066 17.7816 121.439 17.6084C121.813 17.4307 122.246 17.3418 122.738 17.3418C123.085 17.3418 123.404 17.3919 123.695 17.4922C123.987 17.5879 124.24 17.7406 124.454 17.9502C124.668 18.1598 124.835 18.4287 124.953 18.7568C125.072 19.085 125.131 19.4814 125.131 19.9463V24.875H123.866V20.0078C123.866 19.6204 123.8 19.3105 123.668 19.0781C123.54 18.8457 123.358 18.6771 123.121 18.5723C122.884 18.4629 122.606 18.4082 122.287 18.4082C121.913 18.4082 121.601 18.4743 121.351 18.6064C121.1 18.7386 120.899 18.9209 120.749 19.1533C120.599 19.3857 120.489 19.6523 120.421 19.9531C120.357 20.2493 120.325 20.5638 120.325 20.8965ZM125.117 20.1992L124.27 20.459C124.274 20.0534 124.34 19.6637 124.468 19.29C124.6 18.9163 124.789 18.5837 125.035 18.292C125.286 18.0003 125.593 17.7702 125.958 17.6016C126.323 17.4284 126.74 17.3418 127.209 17.3418C127.605 17.3418 127.956 17.3942 128.262 17.499C128.572 17.6038 128.831 17.7656 129.041 17.9844C129.255 18.1986 129.417 18.4743 129.526 18.8115C129.636 19.1488 129.69 19.5498 129.69 20.0146V24.875H128.419V20.001C128.419 19.5863 128.353 19.265 128.221 19.0371C128.093 18.8047 127.911 18.6429 127.674 18.5518C127.441 18.4561 127.163 18.4082 126.84 18.4082C126.562 18.4082 126.316 18.4561 126.102 18.5518C125.887 18.6475 125.707 18.7796 125.562 18.9482C125.416 19.1123 125.304 19.3014 125.227 19.5156C125.154 19.7298 125.117 19.9577 125.117 20.1992ZM132.862 18.9482V24.875H131.591V17.4785H132.794L132.862 18.9482ZM132.603 20.8965L132.015 20.876C132.019 20.3701 132.085 19.903 132.213 19.4746C132.34 19.0417 132.53 18.6657 132.78 18.3467C133.031 18.0277 133.343 17.7816 133.717 17.6084C134.09 17.4307 134.523 17.3418 135.016 17.3418C135.362 17.3418 135.681 17.3919 135.973 17.4922C136.264 17.5879 136.517 17.7406 136.731 17.9502C136.946 18.1598 137.112 18.4287 137.23 18.7568C137.349 19.085 137.408 19.4814 137.408 19.9463V24.875H136.144V20.0078C136.144 19.6204 136.077 19.3105 135.945 19.0781C135.818 18.8457 135.635 18.6771 135.398 18.5723C135.161 18.4629 134.883 18.4082 134.564 18.4082C134.191 18.4082 133.879 18.4743 133.628 18.6064C133.377 18.7386 133.177 18.9209 133.026 19.1533C132.876 19.3857 132.767 19.6523 132.698 19.9531C132.634 20.2493 132.603 20.5638 132.603 20.8965ZM137.395 20.1992L136.547 20.459C136.551 20.0534 136.618 19.6637 136.745 19.29C136.877 18.9163 137.066 18.5837 137.312 18.292C137.563 18.0003 137.871 17.7702 138.235 17.6016C138.6 17.4284 139.017 17.3418 139.486 17.3418C139.883 17.3418 140.234 17.3942 140.539 17.499C140.849 17.6038 141.109 17.7656 141.318 17.9844C141.533 18.1986 141.694 18.4743 141.804 18.8115C141.913 19.1488 141.968 19.5498 141.968 20.0146V24.875H140.696V20.001C140.696 19.5863 140.63 19.265 140.498 19.0371C140.37 18.8047 140.188 18.6429 139.951 18.5518C139.719 18.4561 139.441 18.4082 139.117 18.4082C138.839 18.4082 138.593 18.4561 138.379 18.5518C138.165 18.6475 137.985 18.7796 137.839 18.9482C137.693 19.1123 137.581 19.3014 137.504 19.5156C137.431 19.7298 137.395 19.9577 137.395 20.1992ZM146.951 25.0117C146.436 25.0117 145.969 24.9251 145.55 24.752C145.135 24.5742 144.777 24.3258 144.477 24.0068C144.18 23.6878 143.952 23.3096 143.793 22.8721C143.633 22.4346 143.554 21.9561 143.554 21.4365V21.1494C143.554 20.5479 143.643 20.0124 143.82 19.543C143.998 19.069 144.24 18.668 144.545 18.3398C144.85 18.0117 145.197 17.7633 145.584 17.5947C145.971 17.4261 146.372 17.3418 146.787 17.3418C147.316 17.3418 147.771 17.4329 148.154 17.6152C148.542 17.7975 148.858 18.0527 149.104 18.3809C149.351 18.7044 149.533 19.0872 149.651 19.5293C149.77 19.9668 149.829 20.4453 149.829 20.9648V21.5322H144.306V20.5H148.564V20.4043C148.546 20.0762 148.478 19.7572 148.359 19.4473C148.245 19.1374 148.063 18.8822 147.812 18.6816C147.562 18.4811 147.22 18.3809 146.787 18.3809C146.5 18.3809 146.236 18.4424 145.994 18.5654C145.753 18.6839 145.545 18.8617 145.372 19.0986C145.199 19.3356 145.064 19.625 144.969 19.9668C144.873 20.3086 144.825 20.7028 144.825 21.1494V21.4365C144.825 21.7874 144.873 22.1178 144.969 22.4277C145.069 22.7331 145.213 23.002 145.399 23.2344C145.591 23.4668 145.821 23.6491 146.09 23.7812C146.363 23.9134 146.673 23.9795 147.02 23.9795C147.466 23.9795 147.844 23.8883 148.154 23.7061C148.464 23.5238 148.735 23.2799 148.968 22.9746L149.733 23.583C149.574 23.8245 149.371 24.0547 149.125 24.2734C148.879 24.4922 148.576 24.6699 148.216 24.8066C147.86 24.9434 147.439 25.0117 146.951 25.0117ZM152.57 19.0576V24.875H151.306V17.4785H152.502L152.57 19.0576ZM152.27 20.8965L151.743 20.876C151.748 20.3701 151.823 19.903 151.969 19.4746C152.115 19.0417 152.32 18.6657 152.584 18.3467C152.848 18.0277 153.163 17.7816 153.527 17.6084C153.896 17.4307 154.304 17.3418 154.751 17.3418C155.116 17.3418 155.444 17.3919 155.735 17.4922C156.027 17.5879 156.275 17.7428 156.48 17.957C156.69 18.1712 156.85 18.4492 156.959 18.791C157.068 19.1283 157.123 19.5407 157.123 20.0283V24.875H155.852V20.0146C155.852 19.6273 155.795 19.3174 155.681 19.085C155.567 18.848 155.4 18.6771 155.182 18.5723C154.963 18.4629 154.694 18.4082 154.375 18.4082C154.061 18.4082 153.773 18.4743 153.514 18.6064C153.258 18.7386 153.037 18.9209 152.851 19.1533C152.668 19.3857 152.525 19.6523 152.42 19.9531C152.32 20.2493 152.27 20.5638 152.27 20.8965ZM163.706 23.4395V14.375H164.978V24.875H163.815L163.706 23.4395ZM158.729 21.2588V21.1152C158.729 20.5501 158.798 20.0374 158.935 19.5771C159.076 19.1123 159.274 18.7135 159.529 18.3809C159.789 18.0482 160.097 17.793 160.452 17.6152C160.812 17.4329 161.213 17.3418 161.655 17.3418C162.12 17.3418 162.526 17.4238 162.872 17.5879C163.223 17.7474 163.519 17.9821 163.761 18.292C164.007 18.5973 164.201 18.9665 164.342 19.3994C164.483 19.8324 164.581 20.3223 164.636 20.8691V21.498C164.586 22.0404 164.488 22.528 164.342 22.9609C164.201 23.3939 164.007 23.763 163.761 24.0684C163.519 24.3737 163.223 24.6084 162.872 24.7725C162.521 24.932 162.111 25.0117 161.642 25.0117C161.209 25.0117 160.812 24.9183 160.452 24.7314C160.097 24.5446 159.789 24.2826 159.529 23.9453C159.274 23.6081 159.076 23.2116 158.935 22.7559C158.798 22.2956 158.729 21.7965 158.729 21.2588ZM160.001 21.1152V21.2588C160.001 21.6279 160.037 21.9743 160.11 22.2979C160.188 22.6214 160.306 22.9062 160.466 23.1523C160.625 23.3984 160.828 23.5921 161.074 23.7334C161.32 23.8701 161.614 23.9385 161.956 23.9385C162.375 23.9385 162.719 23.8496 162.988 23.6719C163.262 23.4941 163.48 23.2594 163.645 22.9678C163.809 22.6761 163.936 22.3594 164.027 22.0176V20.3701C163.973 20.1195 163.893 19.8779 163.788 19.6455C163.688 19.4085 163.556 19.1989 163.392 19.0166C163.232 18.8298 163.034 18.6816 162.797 18.5723C162.564 18.4629 162.289 18.4082 161.97 18.4082C161.623 18.4082 161.325 18.4811 161.074 18.627C160.828 18.7682 160.625 18.9642 160.466 19.2148C160.306 19.4609 160.188 19.748 160.11 20.0762C160.037 20.3997 160.001 20.7461 160.001 21.1152ZM178.273 19.584V20.2129C178.273 20.9603 178.18 21.6302 177.993 22.2227C177.806 22.8151 177.537 23.3187 177.187 23.7334C176.836 24.1481 176.414 24.4648 175.922 24.6836C175.434 24.9023 174.887 25.0117 174.281 25.0117C173.693 25.0117 173.153 24.9023 172.661 24.6836C172.174 24.4648 171.75 24.1481 171.39 23.7334C171.034 23.3187 170.758 22.8151 170.562 22.2227C170.367 21.6302 170.269 20.9603 170.269 20.2129V19.584C170.269 18.8366 170.364 18.1689 170.556 17.5811C170.752 16.9886 171.027 16.485 171.383 16.0703C171.738 15.651 172.16 15.332 172.647 15.1133C173.14 14.8945 173.68 14.7852 174.268 14.7852C174.874 14.7852 175.421 14.8945 175.908 15.1133C176.4 15.332 176.822 15.651 177.173 16.0703C177.528 16.485 177.799 16.9886 177.986 17.5811C178.178 18.1689 178.273 18.8366 178.273 19.584ZM176.968 20.2129V19.5703C176.968 18.9779 176.906 18.4538 176.783 17.998C176.665 17.5423 176.489 17.1595 176.257 16.8496C176.024 16.5397 175.74 16.305 175.402 16.1455C175.07 15.986 174.691 15.9062 174.268 15.9062C173.857 15.9062 173.486 15.986 173.153 16.1455C172.825 16.305 172.543 16.5397 172.306 16.8496C172.073 17.1595 171.893 17.5423 171.766 17.998C171.638 18.4538 171.574 18.9779 171.574 19.5703V20.2129C171.574 20.8099 171.638 21.3385 171.766 21.7988C171.893 22.2546 172.076 22.6396 172.312 22.9541C172.554 23.264 172.839 23.4987 173.167 23.6582C173.5 23.8177 173.871 23.8975 174.281 23.8975C174.71 23.8975 175.09 23.8177 175.423 23.6582C175.756 23.4987 176.036 23.264 176.264 22.9541C176.496 22.6396 176.672 22.2546 176.79 21.7988C176.909 21.3385 176.968 20.8099 176.968 20.2129ZM181.322 19.0576V24.875H180.058V17.4785H181.254L181.322 19.0576ZM181.021 20.8965L180.495 20.876C180.5 20.3701 180.575 19.903 180.721 19.4746C180.867 19.0417 181.072 18.6657 181.336 18.3467C181.6 18.0277 181.915 17.7816 182.279 17.6084C182.648 17.4307 183.056 17.3418 183.503 17.3418C183.868 17.3418 184.196 17.3919 184.487 17.4922C184.779 17.5879 185.027 17.7428 185.232 17.957C185.442 18.1712 185.602 18.4492 185.711 18.791C185.82 19.1283 185.875 19.5407 185.875 20.0283V24.875H184.604V20.0146C184.604 19.6273 184.547 19.3174 184.433 19.085C184.319 18.848 184.152 18.6771 183.934 18.5723C183.715 18.4629 183.446 18.4082 183.127 18.4082C182.812 18.4082 182.525 18.4743 182.266 18.6064C182.01 18.7386 181.789 18.9209 181.603 19.1533C181.42 19.3857 181.277 19.6523 181.172 19.9531C181.072 20.2493 181.021 20.5638 181.021 20.8965ZM187.816 24.2051C187.816 23.9909 187.882 23.8109 188.015 23.665C188.151 23.5146 188.347 23.4395 188.603 23.4395C188.858 23.4395 189.051 23.5146 189.184 23.665C189.32 23.8109 189.389 23.9909 189.389 24.2051C189.389 24.4147 189.32 24.5924 189.184 24.7383C189.051 24.8841 188.858 24.957 188.603 24.957C188.347 24.957 188.151 24.8841 188.015 24.7383C187.882 24.5924 187.816 24.4147 187.816 24.2051ZM191.508 24.2051C191.508 23.9909 191.574 23.8109 191.706 23.665C191.843 23.5146 192.039 23.4395 192.294 23.4395C192.549 23.4395 192.743 23.5146 192.875 23.665C193.012 23.8109 193.08 23.9909 193.08 24.2051C193.08 24.4147 193.012 24.5924 192.875 24.7383C192.743 24.8841 192.549 24.957 192.294 24.957C192.039 24.957 191.843 24.8841 191.706 24.7383C191.574 24.5924 191.508 24.4147 191.508 24.2051ZM195.199 24.2051C195.199 23.9909 195.265 23.8109 195.397 23.665C195.534 23.5146 195.73 23.4395 195.985 23.4395C196.241 23.4395 196.434 23.5146 196.566 23.665C196.703 23.8109 196.771 23.9909 196.771 24.2051C196.771 24.4147 196.703 24.5924 196.566 24.7383C196.434 24.8841 196.241 24.957 195.985 24.957C195.73 24.957 195.534 24.8841 195.397 24.7383C195.265 24.5924 195.199 24.4147 195.199 24.2051Z" fill="black"/>
<path d="M89.79 49.145V32.795L93.27 32.825V49.145H89.79ZM88.05 41.525V38.825H97.05V41.525H88.05ZM89.79 49.115H93.27C93.27 49.655 93.35 50.125 93.51 50.525C93.67 50.925 93.89 51.235 94.17 51.455C94.47 51.655 94.82 51.755 95.22 51.755L94.83 54.575C93.25 54.575 92.01 54.095 91.11 53.135C90.23 52.175 89.79 50.835 89.79 49.115ZM96.57 51.245L97.89 53.555C97.41 53.915 96.91 54.175 96.39 54.335C95.89 54.495 95.37 54.575 94.83 54.575L95.22 51.755C95.48 51.755 95.72 51.705 95.94 51.605C96.16 51.505 96.37 51.385 96.57 51.245ZM99.9914 54.125V38.825H103.471V54.125H99.9914ZM102.211 44.495C102.211 43.335 102.391 42.305 102.751 41.405C103.131 40.485 103.651 39.765 104.311 39.245C104.971 38.705 105.711 38.435 106.531 38.435L105.721 41.615C105.041 41.615 104.491 41.885 104.071 42.425C103.671 42.945 103.471 43.635 103.471 44.495H102.211ZM107.761 42.545C107.461 42.265 107.131 42.045 106.771 41.885C106.411 41.705 106.061 41.615 105.721 41.615L106.531 38.435C107.011 38.435 107.451 38.525 107.851 38.705C108.251 38.885 108.661 39.175 109.081 39.575L107.761 42.545ZM111.688 54.125V38.825H115.168V54.125H111.688ZM113.428 36.785C112.828 36.785 112.328 36.595 111.928 36.215C111.548 35.815 111.358 35.315 111.358 34.715C111.358 34.115 111.548 33.615 111.928 33.215C112.328 32.795 112.828 32.585 113.428 32.585C114.028 32.585 114.528 32.795 114.928 33.215C115.348 33.615 115.558 34.115 115.558 34.715C115.558 35.315 115.348 35.815 114.928 36.215C114.528 36.595 114.028 36.785 113.428 36.785ZM119.064 54.065H122.544V60.125H119.064V54.065ZM122.544 38.825V54.125H119.064V38.825H122.544ZM131.124 43.985V48.965H127.644V43.985H131.124ZM127.644 48.965H131.124C131.124 50.025 130.904 50.985 130.464 51.845C130.024 52.685 129.424 53.355 128.664 53.855C127.924 54.335 127.084 54.575 126.144 54.575L125.184 51.695C125.904 51.695 126.494 51.445 126.954 50.945C127.414 50.445 127.644 49.785 127.644 48.965ZM121.284 48.815H122.544C122.544 49.675 122.784 50.375 123.264 50.915C123.764 51.435 124.404 51.695 125.184 51.695L126.144 54.575C125.224 54.575 124.394 54.325 123.654 53.825C122.934 53.325 122.354 52.645 121.914 51.785C121.494 50.905 121.284 49.915 121.284 48.815ZM127.644 43.985C127.644 43.145 127.414 42.475 126.954 41.975C126.494 41.475 125.904 41.225 125.184 41.225L126.144 38.345C127.084 38.345 127.924 38.595 128.664 39.095C129.424 39.575 130.024 40.245 130.464 41.105C130.904 41.945 131.124 42.905 131.124 43.985H127.644ZM121.284 44.135C121.284 43.035 121.494 42.045 121.914 41.165C122.354 40.285 122.934 39.595 123.654 39.095C124.394 38.595 125.224 38.345 126.144 38.345L125.184 41.225C124.404 41.225 123.764 41.495 123.264 42.035C122.784 42.555 122.544 43.255 122.544 44.135H121.284Z" fill="black"/>
<path d="M142.369 54.125V43.955H145.849V54.125H142.369ZM138.769 54.575L139.219 51.875C139.859 51.875 140.409 51.715 140.869 51.395C141.349 51.055 141.719 50.575 141.979 49.955C142.239 49.335 142.369 48.605 142.369 47.765L143.929 47.615C143.929 48.955 143.699 50.155 143.239 51.215C142.779 52.255 142.159 53.075 141.379 53.675C140.619 54.275 139.749 54.575 138.769 54.575ZM138.769 54.575C137.829 54.575 136.979 54.365 136.219 53.945C135.479 53.525 134.889 52.955 134.449 52.235C134.029 51.495 133.819 50.665 133.819 49.745L136.999 49.595C136.999 50.255 137.219 50.805 137.659 51.245C138.119 51.665 138.639 51.875 139.219 51.875L138.769 54.575ZM133.819 49.745C133.819 48.825 134.059 48.005 134.539 47.285C135.039 46.565 135.709 45.995 136.549 45.575C137.389 45.135 138.329 44.915 139.369 44.915L139.669 47.315C138.889 47.315 138.249 47.525 137.749 47.945C137.249 48.365 136.999 48.915 136.999 49.595L133.819 49.745ZM139.669 47.315L139.369 44.915H143.629V47.315H139.669ZM142.369 47.765V44.105H143.929V47.615L142.369 47.765ZM145.849 44.135H142.369C142.369 43.255 142.129 42.545 141.649 42.005C141.189 41.465 140.589 41.195 139.849 41.195V38.345C140.989 38.345 142.009 38.595 142.909 39.095C143.829 39.595 144.549 40.285 145.069 41.165C145.589 42.045 145.849 43.035 145.849 44.135ZM137.329 43.715L134.179 43.115C134.339 42.155 134.669 41.325 135.169 40.625C135.689 39.905 136.349 39.345 137.149 38.945C137.969 38.545 138.869 38.345 139.849 38.345V41.195C139.209 41.195 138.649 41.405 138.169 41.825C137.709 42.245 137.429 42.875 137.329 43.715ZM160.674 38.855H157.194V32.825H160.674V38.855ZM157.194 54.125V38.825H160.674V54.125H157.194ZM148.614 48.965V43.985H152.094V48.965H148.614ZM152.094 43.985H148.614C148.614 42.905 148.834 41.945 149.274 41.105C149.714 40.245 150.304 39.575 151.044 39.095C151.804 38.595 152.654 38.345 153.594 38.345L154.554 41.225C153.834 41.225 153.244 41.475 152.784 41.975C152.324 42.475 152.094 43.145 152.094 43.985ZM158.454 44.135H157.194C157.194 43.255 156.944 42.555 156.444 42.035C155.964 41.495 155.334 41.225 154.554 41.225L153.594 38.345C154.514 38.345 155.344 38.595 156.084 39.095C156.824 39.595 157.404 40.285 157.824 41.165C158.244 42.045 158.454 43.035 158.454 44.135ZM152.094 48.965C152.094 49.785 152.324 50.445 152.784 50.945C153.244 51.445 153.834 51.695 154.554 51.695L153.594 54.575C152.654 54.575 151.804 54.335 151.044 53.855C150.304 53.355 149.714 52.685 149.274 51.845C148.834 50.985 148.614 50.025 148.614 48.965H152.094ZM158.454 48.815C158.454 49.915 158.244 50.905 157.824 51.785C157.404 52.645 156.824 53.325 156.084 53.825C155.344 54.325 154.514 54.575 153.594 54.575L154.554 51.695C155.334 51.695 155.964 51.435 156.444 50.915C156.944 50.375 157.194 49.675 157.194 48.815H158.454ZM168.739 54.125L173.119 38.825H176.599L171.769 54.125H168.739ZM168.199 54.125L163.369 38.825H166.879L171.259 54.125H168.199ZM179.305 54.125V38.825H182.785V54.125H179.305ZM181.045 36.785C180.445 36.785 179.945 36.595 179.545 36.215C179.165 35.815 178.975 35.315 178.975 34.715C178.975 34.115 179.165 33.615 179.545 33.215C179.945 32.795 180.445 32.585 181.045 32.585C181.645 32.585 182.145 32.795 182.545 33.215C182.965 33.615 183.175 34.115 183.175 34.715C183.175 35.315 182.965 35.815 182.545 36.215C182.145 36.595 181.645 36.785 181.045 36.785ZM193.704 50.075C193.704 49.635 193.524 49.265 193.164 48.965C192.804 48.665 192.334 48.385 191.754 48.125C191.174 47.865 190.564 47.605 189.924 47.345C189.284 47.065 188.674 46.735 188.094 46.355C187.534 45.975 187.064 45.505 186.684 44.945C186.324 44.385 186.144 43.695 186.144 42.875C186.144 42.875 186.254 42.875 186.474 42.875C186.714 42.875 186.994 42.875 187.314 42.875C187.654 42.875 187.984 42.875 188.304 42.875C188.644 42.875 188.924 42.875 189.144 42.875C189.364 42.875 189.474 42.875 189.474 42.875C189.474 43.315 189.654 43.685 190.014 43.985C190.394 44.285 190.864 44.565 191.424 44.825C192.004 45.065 192.614 45.325 193.254 45.605C193.894 45.865 194.504 46.185 195.084 46.565C195.664 46.945 196.134 47.415 196.494 47.975C196.854 48.535 197.034 49.235 197.034 50.075C197.034 50.075 196.924 50.075 196.704 50.075C196.484 50.075 196.204 50.075 195.864 50.075C195.544 50.075 195.214 50.075 194.874 50.075C194.554 50.075 194.274 50.075 194.034 50.075C193.814 50.075 193.704 50.075 193.704 50.075ZM191.454 54.575V51.755C192.114 51.755 192.654 51.595 193.074 51.275C193.494 50.955 193.704 50.555 193.704 50.075H197.034C197.034 50.975 196.804 51.765 196.344 52.445C195.884 53.125 195.234 53.655 194.394 54.035C193.554 54.395 192.574 54.575 191.454 54.575ZM186.144 42.875C186.144 41.995 186.374 41.215 186.834 40.535C187.294 39.855 187.914 39.325 188.694 38.945C189.494 38.545 190.394 38.345 191.394 38.345V41.165C190.854 41.165 190.394 41.325 190.014 41.645C189.654 41.965 189.474 42.375 189.474 42.875H186.144ZM188.934 49.205C189.034 50.045 189.314 50.685 189.774 51.125C190.254 51.545 190.814 51.755 191.454 51.755V54.575C190.474 54.575 189.574 54.385 188.754 54.005C187.954 53.605 187.294 53.045 186.774 52.325C186.274 51.605 185.944 50.765 185.784 49.805L188.934 49.205ZM193.914 43.715C193.814 42.855 193.524 42.215 193.044 41.795C192.584 41.375 192.024 41.165 191.364 41.165V38.345C192.384 38.345 193.294 38.545 194.094 38.945C194.894 39.325 195.544 39.875 196.044 40.595C196.564 41.295 196.894 42.135 197.034 43.115L193.914 43.715ZM207.782 48.305V44.645H211.262V48.305H207.782ZM199.232 48.305V44.645H202.712V48.305H199.232ZM205.142 41.195V38.375H205.382V41.195H205.142ZM205.142 54.575V51.725H205.382V54.575H205.142ZM199.232 44.675C199.232 43.455 199.492 42.375 200.012 41.435C200.532 40.495 201.242 39.755 202.142 39.215C203.042 38.655 204.052 38.375 205.172 38.375V41.195C204.412 41.195 203.812 41.505 203.372 42.125C202.932 42.725 202.712 43.575 202.712 44.675H199.232ZM211.262 44.675H207.782C207.782 43.575 207.562 42.725 207.122 42.125C206.702 41.505 206.102 41.195 205.322 41.195V38.375C206.462 38.375 207.472 38.655 208.352 39.215C209.252 39.755 209.962 40.495 210.482 41.435C211.002 42.375 211.262 43.455 211.262 44.675ZM199.232 48.275H202.712C202.712 49.355 202.932 50.205 203.372 50.825C203.812 51.425 204.412 51.725 205.172 51.725V54.575C204.052 54.575 203.042 54.305 202.142 53.765C201.242 53.205 200.532 52.455 200.012 51.515C199.492 50.555 199.232 49.475 199.232 48.275ZM211.262 48.275C211.262 49.475 211.002 50.555 210.482 51.515C209.962 52.455 209.252 53.205 208.352 53.765C207.472 54.305 206.462 54.575 205.322 54.575V51.725C206.102 51.725 206.702 51.425 207.122 50.825C207.562 50.205 207.782 49.355 207.782 48.275H211.262ZM213.956 54.125V38.825H217.436V54.125H213.956ZM216.176 44.495C216.176 43.335 216.356 42.305 216.716 41.405C217.096 40.485 217.616 39.765 218.276 39.245C218.936 38.705 219.676 38.435 220.496 38.435L219.686 41.615C219.006 41.615 218.456 41.885 218.036 42.425C217.636 42.945 217.436 43.635 217.436 44.495H216.176ZM221.726 42.545C221.426 42.265 221.096 42.045 220.736 41.885C220.376 41.705 220.026 41.615 219.686 41.615L220.496 38.435C220.976 38.435 221.416 38.525 221.816 38.705C222.216 38.885 222.626 39.175 223.046 39.575L221.726 42.545Z" fill="#00C853"/>
</svg>
