<svg width="47" height="30" viewBox="0 0 47 30" fill="none" xmlns="http://www.w3.org/2000/svg">
<g clip-path="url(#clip0_18_2282)">
<path d="M46.158 3.21094H0.151611V26.2141H46.158V3.21094Z" fill="#F6F6F6"/>
<path fill-rule="evenodd" clip-rule="evenodd" d="M42.7075 0.623047C40.4072 0.623047 16.0528 0.623046 2.45193 0.623047C1.30177 0.623047 0.151611 1.77321 0.151611 2.92337V6.37385H46.158C46.158 6.37385 46.158 11.714 46.158 4.07353C46.158 1.77321 45.0078 0.623047 42.7075 0.623047Z" fill="#265697"/>
<path fill-rule="evenodd" clip-rule="evenodd" d="M0.151611 23.6262C0.151611 23.6262 0.151612 23.6262 0.151611 25.9265C0.151611 28.2269 1.30177 29.377 3.60209 29.377C16.433 29.377 40.4072 29.377 42.7075 29.377C45.0078 29.377 46.158 28.2269 46.158 25.9265V23.6262H0.151611Z" fill="#D97B16"/>
<path fill-rule="evenodd" clip-rule="evenodd" d="M32.2452 9.1865C31.6004 8.93932 30.5901 8.67407 29.3283 8.67407C26.1125 8.67407 23.8473 10.3289 23.8279 12.7004C23.8098 14.4536 25.4451 15.4315 26.6796 16.0151C27.9464 16.6131 28.3723 16.9946 28.3662 17.5286C28.3582 18.3464 27.3546 18.72 26.4192 18.72C25.1165 18.72 24.4245 18.5351 23.3557 18.0796L22.9363 17.8857L22.4795 20.6169C23.2396 20.9574 24.6453 21.2525 26.1048 21.2678C29.5259 21.2678 31.7468 19.632 31.772 17.0995C31.7843 15.7115 30.9171 14.6553 29.0396 13.7846C27.902 13.2202 27.2053 12.8435 27.2127 12.272C27.2127 11.7649 27.8024 11.2226 29.0765 11.2226C30.1407 11.2057 30.9116 11.4429 31.5124 11.6901L31.804 11.8308L32.2452 9.1865Z" fill="#265697"/>
<path fill-rule="evenodd" clip-rule="evenodd" d="M40.5908 8.89771H38.076C37.297 8.89771 36.7139 9.11497 36.3718 9.90947L31.5383 21.0906H34.9558C34.9558 21.0906 35.5146 19.5872 35.641 19.2571C36.0144 19.2571 39.3344 19.2624 39.809 19.2624C39.9064 19.6895 40.205 21.0906 40.205 21.0906H43.2249L40.5908 8.89771ZM36.5776 16.7616C36.8468 16.0587 37.8743 13.351 37.8743 13.351C37.855 13.3835 38.1414 12.6446 38.3058 12.1865L38.5257 13.2384C38.5257 13.2384 39.1489 16.1508 39.2792 16.7615L36.5776 16.7616Z" fill="#265697"/>
<path fill-rule="evenodd" clip-rule="evenodd" d="M17.1882 21.0869L19.223 8.88623H22.4776L20.4414 21.0869H17.1882Z" fill="#265697"/>
<path fill-rule="evenodd" clip-rule="evenodd" d="M14.4587 8.89502L11.2724 17.215L10.9329 15.5242C10.3397 13.5751 8.49162 11.4634 6.42554 10.4062L9.33901 21.0762L12.7824 21.0722L17.9061 8.89502H14.4587Z" fill="#265697"/>
<path fill-rule="evenodd" clip-rule="evenodd" d="M8.31656 8.8877H3.06864L3.0271 9.14154C7.10993 10.1514 9.81151 12.592 10.9329 15.5244L9.79181 9.91772C9.5948 9.14516 9.02341 8.91462 8.31656 8.8877Z" fill="#D97B16"/>
</g>
<defs>
<clipPath id="clip0_18_2282">
<rect width="46.0064" height="28.754" fill="white" transform="translate(0.151611 0.623047)"/>
</clipPath>
</defs>
</svg>
