<svg width="25" height="25" viewBox="0 0 25 25" fill="none" xmlns="http://www.w3.org/2000/svg">
<g clip-path="url(#clip0_73_353)">
<path d="M1.83322 23.4982H23.8335C24.3842 23.4982 24.8334 23.042 24.8334 22.4984V4.48651C24.8334 3.94289 24.3771 3.48666 23.8335 3.48666H1.83322C1.2896 3.48666 0.833374 3.9358 0.833374 4.48651V22.4984C0.833374 23.0491 1.28251 23.4982 1.83322 23.4982ZM23.8334 22.4981H1.83353V4.48687H23.8334V22.4981Z" fill="black"/>
<path fill-rule="evenodd" clip-rule="evenodd" d="M1.36565 7.50127H24.4135V8.5049H1.36565V7.50127Z" fill="black"/>
<path fill-rule="evenodd" clip-rule="evenodd" d="M8.23523 10.5114H9.43514C9.65541 10.5114 9.83504 10.6911 9.83504 10.9113V12.1112C9.83504 12.3315 9.65541 12.5111 9.43514 12.5111H8.23523C8.01497 12.5111 7.83534 12.3315 7.83534 12.1112V10.9113C7.83534 10.6911 8.01497 10.5114 8.23523 10.5114Z" fill="black"/>
<path fill-rule="evenodd" clip-rule="evenodd" d="M12.236 10.5114H13.4359C13.6562 10.5114 13.8358 10.6911 13.8358 10.9113V12.1112C13.8358 12.3315 13.6562 12.5111 13.4359 12.5111H12.236C12.0158 12.5111 11.8361 12.3315 11.8361 12.1112V10.9113C11.8361 10.6911 12.0158 10.5114 12.236 10.5114Z" fill="black"/>
<path fill-rule="evenodd" clip-rule="evenodd" d="M16.2368 10.5114H17.4368C17.657 10.5114 17.8366 10.6911 17.8366 10.9113V12.1112C17.8366 12.3315 17.657 12.5111 17.4368 12.5111H16.2368C16.0166 12.5111 15.837 12.3315 15.837 12.1112V10.9113C15.837 10.6911 16.0166 10.5114 16.2368 10.5114Z" fill="black"/>
<path fill-rule="evenodd" clip-rule="evenodd" d="M20.2376 10.5114H21.4375C21.6578 10.5114 21.8374 10.6911 21.8374 10.9113V12.1112C21.8374 12.3315 21.6578 12.5111 21.4375 12.5111H20.2376C20.0173 12.5111 19.8377 12.3315 19.8377 12.1112V10.9113C19.8377 10.6911 20.0173 10.5114 20.2376 10.5114Z" fill="black"/>
<path fill-rule="evenodd" clip-rule="evenodd" d="M4.23444 14.5244H5.43435C5.65461 14.5244 5.83424 14.704 5.83424 14.9243V16.1242C5.83424 16.3445 5.65461 16.5241 5.43435 16.5241H4.23444C4.01418 16.5241 3.83455 16.3445 3.83455 16.1242V14.9243C3.83455 14.704 4.01418 14.5244 4.23444 14.5244Z" fill="black"/>
<path fill-rule="evenodd" clip-rule="evenodd" d="M4.23444 18.5374H5.43435C5.65461 18.5374 5.83424 18.717 5.83424 18.9373V20.1372C5.83424 20.3575 5.65461 20.5371 5.43435 20.5371H4.23444C4.01418 20.5371 3.83455 20.3575 3.83455 20.1372V18.9373C3.83455 18.717 4.01418 18.5374 4.23444 18.5374Z" fill="black"/>
<path fill-rule="evenodd" clip-rule="evenodd" d="M8.23523 14.5244H9.43514C9.65541 14.5244 9.83504 14.704 9.83504 14.9243V16.1242C9.83504 16.3445 9.65541 16.5241 9.43514 16.5241H8.23523C8.01497 16.5241 7.83534 16.3445 7.83534 16.1242V14.9243C7.83534 14.704 8.01497 14.5244 8.23523 14.5244Z" fill="black"/>
<path fill-rule="evenodd" clip-rule="evenodd" d="M8.23523 18.5374H9.43514C9.65541 18.5374 9.83504 18.717 9.83504 18.9373V20.1372C9.83504 20.3575 9.65541 20.5371 9.43514 20.5371H8.23523C8.01497 20.5371 7.83534 20.3575 7.83534 20.1372V18.9373C7.83534 18.717 8.01497 18.5374 8.23523 18.5374Z" fill="black"/>
<path fill-rule="evenodd" clip-rule="evenodd" d="M12.236 14.5244H13.4359C13.6562 14.5244 13.8358 14.704 13.8358 14.9243V16.1242C13.8358 16.3445 13.6562 16.5241 13.4359 16.5241H12.236C12.0158 16.5241 11.8361 16.3445 11.8361 16.1242V14.9243C11.8361 14.704 12.0158 14.5244 12.236 14.5244Z" fill="black"/>
<path fill-rule="evenodd" clip-rule="evenodd" d="M12.236 18.5374H13.4359C13.6562 18.5374 13.8358 18.717 13.8358 18.9373V20.1372C13.8358 20.3575 13.6562 20.5371 13.4359 20.5371H12.236C12.0158 20.5371 11.8361 20.3575 11.8361 20.1372V18.9373C11.8361 18.717 12.0158 18.5374 12.236 18.5374Z" fill="black"/>
<path fill-rule="evenodd" clip-rule="evenodd" d="M16.2368 14.5244H17.4368C17.657 14.5244 17.8366 14.704 17.8366 14.9243V16.1242C17.8366 16.3445 17.657 16.5241 17.4368 16.5241H16.2368C16.0166 16.5241 15.837 16.3445 15.837 16.1242V14.9243C15.837 14.704 16.0166 14.5244 16.2368 14.5244Z" fill="black"/>
<path fill-rule="evenodd" clip-rule="evenodd" d="M20.2376 14.5244H21.4375C21.6578 14.5244 21.8374 14.704 21.8374 14.9243V16.1242C21.8374 16.3445 21.6578 16.5241 21.4375 16.5241H20.2376C20.0173 16.5241 19.8377 16.3445 19.8377 16.1242V14.9243C19.8377 14.704 20.0173 14.5244 20.2376 14.5244Z" fill="black"/>
<path fill-rule="evenodd" clip-rule="evenodd" d="M6.32318 1.50171C6.59924 1.50169 6.82312 1.72557 6.82312 2.00162L6.8231 6.00099C6.82312 6.27704 6.59924 6.50092 6.3232 6.50092C6.04716 6.50092 5.82327 6.27704 5.82327 6.00099L5.82326 2.00162C5.82327 1.72557 6.04713 1.50171 6.32318 1.50171Z" fill="black"/>
<path fill-rule="evenodd" clip-rule="evenodd" d="M19.374 1.50171C19.65 1.50169 19.8739 1.72557 19.8739 2.00162V6.00099C19.8739 6.27704 19.65 6.50092 19.374 6.50092C19.0979 6.50092 18.8741 6.27704 18.8741 6.00099V2.00162C18.8741 1.72557 19.0979 1.50171 19.374 1.50171Z" fill="black"/>
</g>
<defs>
<clipPath id="clip0_73_353">
<rect width="24" height="24" fill="white" transform="translate(0.833313 0.5)"/>
</clipPath>
</defs>
</svg>
