<svg width="65" height="65" viewBox="0 0 65 65" fill="none" xmlns="http://www.w3.org/2000/svg">
<g clip-path="url(#clip0_233_20)">
<path d="M21.75 38.1H26.0167C26.0167 40.404 28.9393 42.3667 32.4167 42.3667C35.894 42.3667 38.8167 40.404 38.8167 38.1C38.8167 35.7533 36.598 34.9 31.9047 33.7693C27.382 32.6387 21.75 31.2307 21.75 25.3C21.75 21.4813 24.886 18.2387 29.2167 17.1507V12.5H35.6167V17.1507C39.9473 18.2387 43.0833 21.4813 43.0833 25.3H38.8167C38.8167 22.996 35.894 21.0333 32.4167 21.0333C28.9393 21.0333 26.0167 22.996 26.0167 25.3C26.0167 27.6467 28.2353 28.5 32.9287 29.6307C37.4513 30.7613 43.0833 32.1693 43.0833 38.1C43.0833 41.9187 39.9473 45.1613 35.6167 46.2493V50.9H29.2167V46.2493C24.886 45.1613 21.75 41.9187 21.75 38.1Z" fill="#EF7B48"/>
<path d="M61.75 32.4999C61.75 47.9639 49.214 60.4999 33.75 60.4999C19.1222 60.4999 7.0901 49.4039 5.83288 35.1092C5.77028 34.3975 5.18621 33.8333 4.47177 33.8333H4.4165V33.8333C3.70515 33.8333 3.13474 34.4274 3.19509 35.1362C4.53206 50.8388 17.7014 63.1666 33.75 63.1666C50.6868 63.1666 64.4167 49.4366 64.4167 32.4999C64.4167 15.5632 50.6868 1.83325 33.75 1.83325C21.998 1.83325 11.79 8.44374 6.64142 18.1492C6.3009 18.7911 6.5735 19.5784 7.22342 19.9034L8.40853 20.4959C8.41324 20.4983 8.41579 20.5035 8.41476 20.5087V20.5087C8.41205 20.5222 8.43106 20.5283 8.43696 20.5159C12.9276 11.0475 22.5742 4.49992 33.75 4.49992C49.214 4.49992 61.75 17.0359 61.75 32.4999Z" fill="#EF7B48"/>
<path d="M5.75 12.5L7.08333 20.5L15.0833 17.8333" stroke="#EF7B48" stroke-width="2.66667" stroke-linecap="round"/>
</g>
<defs>
<clipPath id="clip0_233_20">
<rect width="64" height="64" fill="white" transform="translate(0.416748 0.5)"/>
</clipPath>
</defs>
</svg>
