<svg width="65" height="65" viewBox="0 0 65 65" fill="none" xmlns="http://www.w3.org/2000/svg">
<path d="M7.75825 31.9957C7.96837 32.1533 8.20746 32.268 8.46189 32.3331C8.71632 32.3983 8.98109 32.4128 9.24109 32.3756C9.5011 32.3385 9.75124 32.2505 9.97724 32.1167C10.2032 31.9828 10.4007 31.8058 10.5583 31.5957C11.7692 29.9812 13.3394 28.6707 15.1445 27.7682C16.9496 26.8656 18.9401 26.3957 20.9583 26.3957C22.9764 26.3957 24.9669 26.8656 26.772 27.7682C28.5771 28.6707 30.1473 29.9812 31.3583 31.5957C31.6769 32.0197 32.1509 32.2997 32.6759 32.3743C33.201 32.4488 33.7342 32.3117 34.1583 31.9932C34.3094 31.8808 34.4433 31.7469 34.5558 31.5957C35.7667 29.9812 37.3369 28.6707 39.142 27.7682C40.9471 26.8656 42.9376 26.3957 44.9558 26.3957C46.9739 26.3957 48.9644 26.8656 50.7695 27.7682C52.5746 28.6707 54.1448 29.9812 55.3558 31.5957C55.6743 32.0201 56.1485 32.3005 56.6738 32.3752C57.1991 32.45 57.7327 32.3131 58.157 31.9945C58.5813 31.6759 58.8618 31.2018 58.9365 30.6764C59.0113 30.1511 58.8743 29.6176 58.5558 29.1932C56.7854 26.8199 54.4247 24.9513 51.7083 23.7732C53.1975 22.4136 54.2408 20.6354 54.7014 18.6722C55.162 16.709 55.0183 14.6524 54.2891 12.7723C53.56 10.8922 52.2794 9.27646 50.6156 8.13715C48.9517 6.99784 46.9823 6.38818 44.9658 6.38818C42.9492 6.38818 40.9798 6.99784 39.3159 8.13715C37.6521 9.27646 36.3716 10.8922 35.6424 12.7723C34.9132 14.6524 34.7695 16.709 35.2301 18.6722C35.6907 20.6354 36.734 22.4136 38.2233 23.7732C36.2619 24.6213 34.4801 25.8355 32.9733 27.3507C31.4664 25.8355 29.6846 24.6213 27.7233 23.7732C29.2125 22.4136 30.2558 20.6354 30.7164 18.6722C31.177 16.709 31.0333 14.6524 30.3041 12.7723C29.575 10.8922 28.2944 9.27646 26.6306 8.13715C24.9667 6.99784 22.9973 6.38818 20.9808 6.38818C18.9642 6.38818 16.9948 6.99784 15.3309 8.13715C13.6671 9.27646 12.3865 10.8922 11.6574 12.7723C10.9282 14.6524 10.7845 16.709 11.2451 18.6722C11.7057 20.6354 12.749 22.4136 14.2383 23.7732C11.5099 24.9475 9.1375 26.8172 7.35825 29.1957C7.20067 29.4058 7.08601 29.6449 7.02082 29.8994C6.95564 30.1538 6.94121 30.4186 6.97835 30.6786C7.0155 30.9386 7.10349 31.1887 7.2373 31.4147C7.37112 31.6407 7.54814 31.8381 7.75825 31.9957ZM44.9583 10.3957C46.1449 10.3957 47.305 10.7476 48.2917 11.4069C49.2784 12.0662 50.0474 13.0033 50.5015 14.0996C50.9557 15.196 51.0745 16.4024 50.843 17.5663C50.6115 18.7301 50.04 19.7992 49.2009 20.6384C48.3618 21.4775 47.2927 22.0489 46.1288 22.2804C44.9649 22.5119 43.7585 22.3931 42.6622 21.939C41.5658 21.4849 40.6287 20.7158 39.9694 19.7291C39.3101 18.7424 38.9583 17.5824 38.9583 16.3957C38.9583 14.8044 39.5904 13.2783 40.7156 12.1531C41.8408 11.0279 43.367 10.3957 44.9583 10.3957ZM20.9583 10.3957C22.1449 10.3957 23.305 10.7476 24.2917 11.4069C25.2784 12.0662 26.0474 13.0033 26.5015 14.0996C26.9557 15.196 27.0745 16.4024 26.843 17.5663C26.6115 18.7301 26.04 19.7992 25.2009 20.6384C24.3618 21.4775 23.2927 22.0489 22.1288 22.2804C20.9649 22.5119 19.7585 22.3931 18.6622 21.939C17.5658 21.4849 16.6287 20.7158 15.9694 19.7291C15.3101 18.7424 14.9583 17.5824 14.9583 16.3957C14.9583 14.8044 15.5904 13.2783 16.7156 12.1531C17.8408 11.0279 19.367 10.3957 20.9583 10.3957ZM51.7083 49.7732C53.1975 48.4136 54.2408 46.6354 54.7014 44.6722C55.162 42.709 55.0183 40.6524 54.2891 38.7723C53.56 36.8922 52.2794 35.2765 50.6156 34.1371C48.9517 32.9978 46.9823 32.3882 44.9658 32.3882C42.9492 32.3882 40.9798 32.9978 39.3159 34.1371C37.6521 35.2765 36.3716 36.8922 35.6424 38.7723C34.9132 40.6524 34.7695 42.709 35.2301 44.6722C35.6907 46.6354 36.734 48.4136 38.2233 49.7732C36.2619 50.6213 34.4801 51.8355 32.9733 53.3507C31.4664 51.8355 29.6846 50.6213 27.7233 49.7732C29.2125 48.4136 30.2558 46.6354 30.7164 44.6722C31.177 42.709 31.0333 40.6524 30.3041 38.7723C29.575 36.8922 28.2944 35.2765 26.6306 34.1371C24.9667 32.9978 22.9973 32.3882 20.9808 32.3882C18.9642 32.3882 16.9948 32.9978 15.3309 34.1371C13.6671 35.2765 12.3865 36.8922 11.6574 38.7723C10.9282 40.6524 10.7845 42.709 11.2451 44.6722C11.7057 46.6354 12.749 48.4136 14.2383 49.7732C11.5099 50.9474 9.1375 52.8172 7.35825 55.1957C7.20067 55.4058 7.08601 55.6449 7.02082 55.8994C6.95564 56.1538 6.94121 56.4186 6.97835 56.6786C7.0155 56.9386 7.10349 57.1887 7.2373 57.4147C7.37112 57.6407 7.54814 57.8381 7.75825 57.9957C7.96837 58.1533 8.20746 58.268 8.46189 58.3331C8.71632 58.3983 8.98109 58.4128 9.24109 58.3756C9.5011 58.3385 9.75124 58.2505 9.97724 58.1167C10.2032 57.9828 10.4007 57.8058 10.5583 57.5957C11.7692 55.9812 13.3394 54.6707 15.1445 53.7682C16.9496 52.8656 18.9401 52.3957 20.9583 52.3957C22.9764 52.3957 24.9669 52.8656 26.772 53.7682C28.5771 54.6707 30.1473 55.9812 31.3583 57.5957C31.6769 58.0197 32.1509 58.2997 32.6759 58.3743C33.201 58.4488 33.7342 58.3117 34.1583 57.9932C34.3094 57.8808 34.4433 57.7469 34.5558 57.5957C35.7667 55.9812 37.3369 54.6707 39.142 53.7682C40.9471 52.8656 42.9376 52.3957 44.9558 52.3957C46.9739 52.3957 48.9644 52.8656 50.7695 53.7682C52.5746 54.6707 54.1448 55.9812 55.3558 57.5957C55.6743 58.0201 56.1485 58.3005 56.6738 58.3752C57.1991 58.45 57.7327 58.3131 58.157 57.9945C58.5813 57.6759 58.8618 57.2018 58.9365 56.6764C59.0113 56.1511 58.8743 55.6176 58.5558 55.1932C56.7854 52.8199 54.4247 50.9513 51.7083 49.7732ZM20.9583 36.3957C22.1449 36.3957 23.305 36.7476 24.2917 37.4069C25.2784 38.0662 26.0474 39.0033 26.5015 40.0996C26.9557 41.196 27.0745 42.4024 26.843 43.5663C26.6115 44.7301 26.04 45.7992 25.2009 46.6384C24.3618 47.4775 23.2927 48.0489 22.1288 48.2804C20.9649 48.5119 19.7585 48.3931 18.6622 47.939C17.5658 47.4849 16.6287 46.7158 15.9694 45.7291C15.3101 44.7424 14.9583 43.5824 14.9583 42.3957C14.9583 40.8044 15.5904 39.2783 16.7156 38.1531C17.8408 37.0279 19.367 36.3957 20.9583 36.3957ZM44.9583 36.3957C46.1449 36.3957 47.305 36.7476 48.2917 37.4069C49.2784 38.0662 50.0474 39.0033 50.5015 40.0996C50.9557 41.196 51.0745 42.4024 50.843 43.5663C50.6115 44.7301 50.04 45.7992 49.2009 46.6384C48.3618 47.4775 47.2927 48.0489 46.1288 48.2804C44.9649 48.5119 43.7585 48.3931 42.6622 47.939C41.5658 47.4849 40.6287 46.7158 39.9694 45.7291C39.3101 44.7424 38.9583 43.5824 38.9583 42.3957C38.9583 40.8044 39.5904 39.2783 40.7156 38.1531C41.8408 37.0279 43.367 36.3957 44.9583 36.3957Z" fill="#EF7B48"/>
</svg>
