<svg width="25" height="25" viewBox="0 0 25 25" fill="none" xmlns="http://www.w3.org/2000/svg">
<path d="M16.7854 10.9999C16.7854 12.1364 16.3339 13.2264 15.5303 14.0301C14.7266 14.8338 13.6366 15.2853 12.5 15.2853C11.3634 15.2853 10.2734 14.8338 9.46973 14.0301C8.66605 13.2264 8.21455 12.1364 8.21455 10.9999C8.21455 9.86328 8.66605 8.77326 9.46973 7.96959C10.2734 7.16591 11.3634 6.71441 12.5 6.71441C13.6366 6.71441 14.7266 7.16591 15.5303 7.96959C16.3339 8.77326 16.7854 9.86328 16.7854 10.9999ZM15.357 10.9999C15.357 10.2421 15.056 9.51546 14.5202 8.97968C13.9844 8.44389 13.2577 8.14289 12.5 8.14289C11.7423 8.14289 11.0156 8.44389 10.4798 8.97968C9.94404 9.51546 9.64303 10.2421 9.64303 10.9999C9.64303 11.7576 9.94404 12.4842 10.4798 13.02C11.0156 13.5558 11.7423 13.8568 12.5 13.8568C13.2577 13.8568 13.9844 13.5558 14.5202 13.02C15.056 12.4842 15.357 11.7576 15.357 10.9999ZM19.571 18.078C21.4465 16.2015 22.5 13.6571 22.5 11.0041C22.5 8.35114 21.4465 5.80673 19.571 3.9303C18.6426 3.00132 17.5403 2.26438 16.3271 1.76158C15.1138 1.25879 13.8133 1 12.5 1C11.1867 1 9.88621 1.25879 8.67294 1.76158C7.45967 2.26438 6.35736 3.00132 5.42901 3.9303C3.55354 5.80673 2.5 8.35114 2.5 11.0041C2.5 13.6571 3.55354 16.2015 5.42901 18.078L7.60173 20.2193L10.5201 23.0548L10.7101 23.2234C11.8172 24.1205 13.4385 24.0633 14.4813 23.0548L17.9597 19.6693L19.571 18.078ZM6.43609 4.93738C7.23229 4.14082 8.17762 3.50894 9.21808 3.07783C10.2585 2.64672 11.3738 2.42483 12.5 2.42483C13.6262 2.42483 14.7415 2.64672 15.7819 3.07783C16.8224 3.50894 17.7677 4.14082 18.5639 4.93738C20.1277 6.50221 21.0268 8.61046 21.0737 10.8222C21.1205 13.034 20.3114 15.1784 18.8153 16.8081L18.5639 17.0709L16.6769 18.9336L13.4914 22.032L13.3571 22.1463C13.11 22.3322 12.809 22.4326 12.4998 22.4324C12.1905 22.4321 11.8897 22.3312 11.6429 22.1449L11.5101 22.0306L7.25318 17.8809L6.43609 17.0709L6.18468 16.8095C4.68855 15.1799 3.8795 13.0354 3.92635 10.8237C3.97319 8.61189 4.87231 6.50221 6.43609 4.93738Z" fill="black"/>
</svg>
