<svg width="65" height="65" viewBox="0 0 65 65" fill="none" xmlns="http://www.w3.org/2000/svg">
<path d="M48.5832 56.3958C48.5832 50.7379 46.3356 45.3117 42.3348 41.3109C38.334 37.3101 32.9078 35.0625 27.2498 35.0625C21.5919 35.0625 16.1657 37.3101 12.1649 41.3109C8.16412 45.3117 5.9165 50.7379 5.9165 56.3958" stroke="#EF7B48" stroke-width="5.33333" stroke-linecap="round" stroke-linejoin="round"/>
<path d="M27.2498 35.0624C34.6136 35.0624 40.5832 29.0929 40.5832 21.7291C40.5832 14.3653 34.6136 8.39575 27.2498 8.39575C19.886 8.39575 13.9165 14.3653 13.9165 21.7291C13.9165 29.0929 19.886 35.0624 27.2498 35.0624Z" stroke="#EF7B48" stroke-width="5.33333" stroke-linecap="round" stroke-linejoin="round"/>
<path d="M59.25 53.7291C59.25 44.7424 53.9166 36.3958 48.5833 32.3958C50.3364 31.0805 51.7383 29.3533 52.6648 27.3672C53.5914 25.381 54.014 23.197 53.8954 21.0086C53.7767 18.8201 53.1204 16.6947 51.9846 14.8203C50.8487 12.946 49.2683 11.3805 47.3833 10.2625" stroke="#EF7B48" stroke-width="5.33333" stroke-linecap="round" stroke-linejoin="round"/>
</svg>
