<svg width="65" height="65" viewBox="0 0 65 65" fill="none" xmlns="http://www.w3.org/2000/svg">
<path d="M32.3125 33.9205C33.8882 33.9205 35.4484 33.6102 36.9042 33.0072C38.3599 32.4042 39.6827 31.5204 40.7969 30.4062C41.911 29.292 42.7949 27.9692 43.3979 26.5135C44.0009 25.0577 44.3112 23.4975 44.3112 21.9218C44.3112 20.3461 44.0009 18.7858 43.3979 17.33C42.7949 15.8743 41.911 14.5515 40.7969 13.4374C39.6827 12.3232 38.3599 11.4393 36.9042 10.8363C35.4484 10.2334 33.8882 9.92299 32.3125 9.92299C29.1302 9.92299 26.0783 11.1871 23.828 13.4374C21.5778 15.6876 20.3137 18.7395 20.3137 21.9218C20.3137 25.104 21.5778 28.156 23.828 30.4062C26.0783 32.6564 29.1302 33.9205 32.3125 33.9205ZM32.3311 5.72876C35.8433 5.72762 39.2583 6.88226 42.0491 9.01455C44.8399 11.1468 46.8516 14.1383 47.7736 17.5273C48.6956 20.9163 48.4767 24.5145 47.1508 27.7668C45.8249 31.0191 43.4656 33.7447 40.4369 35.523C50.2706 38.4827 57.6565 46.7699 58.9817 57.0621C59.107 58.0407 58.3791 58.9286 57.3552 59.0486C56.334 59.1686 55.4007 58.4753 55.2754 57.4968C53.8356 46.3246 44.1592 37.9121 32.4244 37.9121C20.6257 37.9121 10.824 46.3406 9.38682 57.4968C9.2615 58.4753 8.32826 59.1686 7.30704 59.0486C6.28314 58.9286 5.55522 58.0407 5.68054 57.0621C7.00307 46.8125 14.429 38.536 24.2786 35.5497C21.2408 33.7794 18.8707 31.0576 17.5349 27.8052C16.1991 24.5528 15.9719 20.9509 16.8885 17.5565C17.8051 14.162 19.8144 11.164 22.6058 9.0261C25.3971 6.88816 28.8151 5.72932 32.3311 5.72876Z" fill="#EF7B48"/>
</svg>
